<svg xmlns="http://www.w3.org/2000/svg" xmlns:xlink="http://www.w3.org/1999/xlink" fill="none" version="1.1" width="21" height="24" viewBox="0 0 21 24"><defs><clipPath id="master_svg0_46_963"><rect x="0" y="0" width="21" height="24" rx="0"/></clipPath></defs><g clip-path="url(#master_svg0_46_963)"><g transform="matrix(1,0,0,-1,0,49.03125)"><g><path d="M11.25,44.765625L16.0781,44.765625L11.25,44.765625L16.0781,44.765625Q15.5156,46.171825,14.3906,47.109425L11.25,44.765625ZM13.0312,47.953125Q11.8594,48.515625,10.5,48.515625Q8.57812,48.468725,7.125,47.484425Q5.625,46.453125,4.92188,44.765625L8.76562,44.765625L13.0312,47.953125ZM10.5,36.515625Q13.0312,36.562525,14.7656,38.250025Q16.4531,39.984425,16.5,42.515625Q16.5,42.890625,16.4531,43.265625L4.54688,43.265625Q4.5,42.890625,4.5,42.515625Q4.54688,39.984425,6.23438,38.250025Q7.96875,36.562525,10.5,36.515625ZM5.8125,33.890625Q5.10938,33.656245,4.5,33.328125L4.5,24.515625L11.4375,24.515625L8.53125,29.390625L5.8125,33.890625ZM7.35938,34.218745L9.5625,30.515625L7.35938,34.218745L9.5625,30.515625L12.75,30.515625Q14.3438,30.468745,15.4219,29.437505Q16.4531,28.359375,16.5,26.765625Q16.5,25.5,15.75,24.515625L19.5938,24.515625Q20.2031,24.515625,20.5781,24.9375Q21,25.3125,21,25.921875Q20.9062,29.437505,18.5625,31.828125Q16.1719,34.171875,12.6562,34.265625L8.34375,34.265625Q7.875,34.265625,7.35938,34.218745ZM0,25.921875Q0,25.3125,0.421875,24.9375Q0.796875,24.515625,1.40625,24.515625L3,24.515625L3,32.343745Q1.59375,31.171875,0.796875,29.531245Q0,27.843745,0,25.921875ZM15,26.765625Q14.9531,27.703125,14.3438,28.359375Q13.6875,28.968745,12.75,29.015625L10.5,29.015625L13.1719,24.5625Q13.9688,24.703125,14.4844,25.3125Q15,25.921875,15,26.765625Z" fill="#3B82F6" fill-opacity="1" style="mix-blend-mode:passthrough"/></g></g></g></svg>