<?xml version="1.0" encoding="UTF-8"?>
<svg id="_图层_2" data-name="图层 2" xmlns="http://www.w3.org/2000/svg" xmlns:xlink="http://www.w3.org/1999/xlink" viewBox="0 0 439.16 172.87">
  <defs>
    <style>
      .cls-1 {
        fill: url(#_未命名的渐变_17);
      }
    </style>
    <linearGradient id="_未命名的渐变_17"  x1="0" y1="86.44" x2="439.16" y2="86.44" gradientUnits="userSpaceOnUse">
      <stop offset="0" stop-color="#375d81"/>
      <stop offset="1" stop-color="#abc8e2"/>
    </linearGradient>
  </defs>
  <g id="_图层_1-2">
    <path class="cls-1" d="M143.84,74.22c-7.2,5.22-12.48,12-16.43,19.9-.22,.44-.63,.79-.95,1.18-.04-.39-.17-.79-.12-1.16,1.43-9.42,2.46-19.05,8.44-26.93,2.08-2.74,5.34-4.59,8.06-6.85,0,.07-.02,.14,0,.19,.02,.05,.1,.11,.14,.1,1.09-.31,2.18-.64,3.27-.96-.52,1.54-1.34,3.05-1.47,4.63-.19,2.22-.42,4.72,.42,6.65,.56,1.31,.78,1.6-.39,2.26-.39,.22-.66,.66-.99,1Zm-33.35-28.44c-2.97,.9-4.95,2.94-6.74,5.3-.29,.38-.98,.44-1.34,.8-.61,.62-1.25,1.28-1.61,2.05-.62,1.32-.88,2.81-1.56,4.09-.69,1.29-.42,1.74,.94,1.77,.36-.44,.73-.88,1.09-1.32,.27-.32,.53-.65,.8-.97,.25-.22,.49-.45,.75-.66,.2-.16,.41-.28,.62-.42-.08,.28-.1,.6-.24,.84-1.02,1.64-2.06,3.27-3.09,4.9,.44,1.1,.99,1.83,2.41,1.3,.56-.21,1.32,.05,1.97,.18,1.69,.34,2.1,.87,.68,2.34-.59,.61-.86,2.49-.41,2.96,1.81,1.87,1.49,4.01,1.28,6.14-.51,5.11,.28,9.79,3.59,13.93,.88,1.11,1.25,2.63,1.85,3.97,.32-.53,.64-1.06,.97-1.59-.12-1.56,1.72-4.41,3.18-4.93,2.28-4.71,4.71-9.36,6.82-14.15,3.57-8.11,8.15-15.57,13.84-22.35,5.43-6.47,12.11-11.38,19.33-15.64,.47-.28,.83-.76,1.25-1.14-.52,.01-1.06-.05-1.56,.06-7.47,1.63-14.98,3.08-22.38,4.97-6.85,1.75-13.58,3.98-20.37,5.99-.68,.55-1.28,1.38-2.06,1.61Zm-54.46,18.27c.51-.87,.47-2.1,.58-3.17,.04-.34-.19-1-.37-1.03-2.53-.44-2.43-2.84-2.57-4.33-.16-1.65,.97-3.43,1.52-5.16,.34-1.06,.64-2.13,.96-3.2-3.9,6.14-7.24,12.6-9.07,19.62-2.06,7.89-3.64,15.91-5.16,23.93-1.16,6.11-1.65,12.34-4.38,18.07-1.17,2.46-2.97,3.94-5.49,5.03-5.56,2.42-11.11,4.92-16.39,7.88-3.7,2.08-7.13,4.76-10.34,7.57-2.05,1.79-3.49,4.29-5.14,6.51-.23,.32-.13,.88-.19,1.33,.35-.01,.75,.07,1.05-.06,3.84-1.72,7.7-3.4,11.49-5.23,4.98-2.41,10.13-4.35,15.69-3.14,7.38,1.61,14.65,3.73,21.98,5.56,3.93,.98,7.9,1.84,11.85,2.75-.99-.51-1.95-1.1-2.98-1.52-1.24-.5-2.01-.98-.69-2.24,1.07-1.01,1.31-2,.35-3.4-.45-.66-.24-1.95,0-2.87,.53-1.98,.66-3.65-1.71-4.5-.38-.14-.64-.62-.95-.94,.47-.08,.95-.27,1.41-.22,1.89,.21,3.78,.57,5.67,.71,.48,.04,1.01-.49,1.52-.76-5.07-1.11-10.12-2.28-15.21-3.3-3.59-.72-7.23-1.25-10.84-1.86-.26-.04-.51-.11-.76-.17,.2-.28,.35-.6,.6-.82,5.23-4.73,7.17-11.17,8.64-17.65,2.48-10.91,5.03-21.76,10-31.87-.97-.06-2.05,.14-1.07-1.51Zm39.36,6.86c-3.52,7.15-6.94,14.36-12.08,20.55-1.73,2.09-3.59,4.08-5.39,6.12-.23,.48-.36,1.06-.71,1.41-.89,.9-1.78,1.67,.28,2.15,.2,.05,.37,.36,.48,.59,.81,1.69,1.78,3.34,2.34,5.12,.37,1.16,.17,2.5,.18,3.76,0,.31-.15,.61-.24,.92,.32,0,.65-.04,.97,0,1.12,.12,2.23,.26,3.34,.39,.53-.09,1.09-.09,1.58-.27,10.3-3.72,18.82-9.84,25.31-18.7-.6-1.33-.96-2.86-1.85-3.97-3.31-4.14-4.1-8.83-3.59-13.93,.21-2.12,.54-4.27-1.28-6.14-.45-.46-.18-2.35,.41-2.96,1.42-1.47,1.01-2-.68-2.34-.65-.13-1.41-.39-1.97-.18-1.42,.54-1.97-.2-2.41-1.3-1.58,2.92-3.26,5.79-4.72,8.77ZM185.59,8.97s0,0,0,0c-.11,.43-.15,.88-.35,1.27-.17,.34-.78,.66-.73,.89,.77,3.82-.13,8.26,3.82,10.92,.63,.42,1.57,.35,2.3,.66,.54,.24,.96,.74,1.44,1.13,4.75,.51,9.5,1.12,14.27,1.49,9.31,.73,18.34-.34,27.14-3.75,7.61-2.95,14.52-6.98,20.82-12.05,3.06-2.47,5.75-5.42,8.57-8.18,.35-.35,.51-.89,.76-1.34-.48,.24-.95,.48-1.43,.73-.12,.06-.23,.15-.33,.24-6.78,5.59-14.8,8.39-23.27,9.93-13.44,2.45-26.8,1.35-40.1-1.29-3.41-.68-6.85-1.19-10.28-1.78-.88,.38-1.76,.75-2.64,1.13ZM95.57,120c-1.42,.8-2.66,1.73-2.6,3.55,.09,2.36-1.82,4.45-.83,6.97,.2,.5-.61,1.37-.9,2.09-.14,.34-.16,.74-.23,1.11,.37,.04,.75,.17,1.11,.11,1.78-.27,3.54-.59,5.32-.89,.26-.03,.56,.02,.79-.09,8.6-4.09,16.37-9.54,22.4-16.81,6.4-7.72,11.85-16.23,17.75-24.38,2.55-3.52,4.95-7.2,7.86-10.4,3.8-4.18,8.07-7.91,13.39-10.17,.47-.2,.85-.64,1.27-.96-.51,.13-1.05,.19-1.52,.41-2.58,1.21-5.24,2.3-7.7,3.74-8.04,4.7-14.73,11.02-20.23,18.44-8.93,12.08-20.37,20.65-34.35,25.95-.51,.45-.95,.99-1.53,1.32Zm-11.07,1.44c-6.58,.39-13.21-.09-19.81-.2-.51,.27-1.04,.8-1.52,.76-1.9-.15-3.78-.5-5.67-.71-.46-.05-.94,.14-1.41,.22,.31,.32,.57,.81,.95,.94,2.37,.85,2.23,2.52,1.71,4.5-.24,.92-.46,2.21,0,2.87,.95,1.4,.71,2.39-.35,3.4-1.33,1.26-.55,1.74,.69,2.24,1.03,.41,1.99,1.01,2.98,1.52,5.27,.4,10.55,1.24,15.8,1.08,6.83-.2,13.45-1.9,19.58-5.12-1.77,.3-3.54,.62-5.32,.89-.36,.05-.74-.07-1.11-.11,.07-.37,.09-.76,.23-1.11,.29-.72,1.1-1.59,.9-2.09-.99-2.53,.91-4.62,.83-6.97-.07-1.83,1.17-2.75,2.6-3.55,.57-.32,1.02-.87,1.53-1.32-4.2,.96-8.36,2.5-12.6,2.76ZM171.37,4.43c-4.2-.69-8.48-.85-12.73-1.24-2.53,.64-3.04,2.18-2.38,4.61,.47,1.73,.16,3.34-.91,5.13-.84,1.41-.17,3.71-.18,5.61,8.48,1.13,16.97,2.23,25.44,3.41,3.83,.54,7.63,1.25,11.45,1.89-.48-.39-.9-.89-1.44-1.13-.72-.32-1.67-.24-2.3-.66-3.95-2.66-3.05-7.1-3.82-10.92-.05-.24,.56-.55,.73-.89,.19-.38,.24-.84,.35-1.27-.36-.07-.71-.14-1.07-.21,.02-.06,.06-.16,.06-.16,.34,.12,.67,.25,1,.38,.88-.37,1.76-.75,2.64-1.13-5.62-1.16-11.2-2.49-16.86-3.41ZM91.58,56.1c-8.26,7.06-13.95,15.89-17.61,26.08,.06,.87,.36,1.8,.12,2.58-.4,1.34-.29,1.82,1.23,1.47,.51-.12,1.33-.05,1.61,.27,.25,.28-.09,1.05-.1,1.6,0,.26,.22,.77,.26,.76,1.55-.32,1.65,.27,1.13,1.55-.19,.47,.1,1.14,.17,1.72,1.9-2.4,3.98-4.68,5.65-7.23,5.46-8.31,10.78-16.73,16.15-25.1-1.36-.03-1.63-.48-.94-1.77,.68-1.28,.94-2.77,1.56-4.09,.36-.77,1-1.44,1.61-2.05,.36-.36,1.05-.42,1.34-.8,1.79-2.36,3.76-4.4,6.74-5.3,.78-.23,1.38-1.06,2.06-1.61-7.58,2.94-14.77,6.61-20.98,11.92Zm-19.03,29.23c-3.19,7.58-6.69,15.04-13.2,20.37-3.12,2.56-6.9,4.32-10.39,6.43-.33,.2-.72,.3-1.08,.45,.41,.17,.81,.39,1.24,.5,6.94,1.85,14.05,2.26,21.12,1.64,4.83-.42,9.57-1.81,14.35-2.77-1.11-.13-2.23-.28-3.34-.39-.32-.03-.65,0-.97,0,.08-.31,.24-.61,.24-.92-.01-1.26,.19-2.61-.18-3.76-.57-1.78-1.53-3.42-2.34-5.12-.11-.23-.28-.55-.48-.59-2.07-.48-1.17-1.25-.28-2.15,.35-.36,.48-.93,.71-1.41-1.06,.89-2.13,1.78-3.19,2.67-.53,.46-1.07,.92-1.6,1.38-5.5,3.01-10.97,6.06-16.52,8.97-1.09,.57-2.48,.57-3.73,.83,1.13-.41,2.25-.83,3.38-1.24,7.26-2.59,12.5-7.93,17.78-13.18,1.54-1.54,2.9-3.26,4.34-4.89-.07-.58-.36-1.25-.16-1.72,.52-1.28,.42-1.86-1.13-1.55-.04,0-.27-.49-.26-.76,0-.55,.35-1.32,.1-1.6-.29-.32-1.1-.39-1.61-.27-1.52,.35-1.63-.13-1.23-1.47,.23-.78-.06-1.72-.12-2.58-.47,1.05-.97,2.09-1.42,3.15Zm-14.98-20.15c5.47-10.52,13.15-19.18,22.25-26.66-1.07,.29-2.14,.59-3.21,.88-.11-1.82-.45-3.66-.25-5.44,.2-1.8,.57-3.78,1.51-5.27,1.57-2.49,3.4-4.95,5.6-6.87,2.76-2.41,6.01-4.27,9.04-6.36-2.68,1.39-5.57,2.49-8.01,4.22-4.96,3.51-9.85,7.17-14.47,11.11-5.49,4.68-10.06,10.23-13.88,16.38-.32,1.07-.63,2.14-.96,3.2-.55,1.73-1.68,3.5-1.52,5.16,.14,1.49,.04,3.89,2.57,4.33,.19,.03,.41,.69,.37,1.03-.11,1.08-.07,2.3-.58,3.17-.97,1.65,.1,1.45,1.07,1.51,.16-.13,.37-.22,.46-.39ZM135.56,17.72c-1.04-.13-2.16-.09-1.94-1.67,0-.07,.02-.18-.01-.2-2.96-1.52-.31-3.22-.04-4.74,.35-1.91,.95-3.89,1.94-5.54,.62-1.02,2.17-1.48,3.29-2.2,.45-.29,.86-.63,1.29-.95-5.82,.72-11.68,1.25-17.46,2.24-3.97,.67-7.84,1.98-11.75,3-1.08,.36-2.16,.73-3.24,1.09,0,0,.06-.02,.06-.02-.36,.82-.75,1.64-1.08,2.48-.17,.42-.11,.98-.37,1.3-.71,.88-1.45,1.56-.37,2.79,.26,.3-.47,1.52-.82,2.28-1.03,2.23-2.04,4.45-.57,6.88,2.12-.66,4.24-1.34,6.37-1.97,8.68-2.55,17.59-3.69,26.57-4.39-.62-.13-1.24-.3-1.87-.38Zm-55.73,20.8c-1.07,.29-2.14,.59-3.21,.88-.11-1.82-.45-3.66-.25-5.44,.2-1.8,.57-3.78,1.51-5.27,1.57-2.49,3.4-4.95,5.6-6.87,2.76-2.41,6.01-4.27,9.04-6.36,5.06-2.24,10.12-4.48,15.18-6.72-.36,.82-.75,1.64-1.08,2.48-.17,.42-.11,.98-.37,1.3-.71,.88-1.45,1.56-.37,2.79,.26,.3-.47,1.52-.82,2.28-1.03,2.23-2.04,4.45-.57,6.88-7.07,2.99-13.9,6.44-20.21,10.85-1.5,1.05-2.96,2.14-4.44,3.21Zm75.36-20c0-1.9-.66-4.2,.18-5.61,1.06-1.78,1.38-3.4,.91-5.13-.66-2.43-.15-3.96,2.38-4.61-1.03-.18-2.07-.51-3.11-.53-5.15-.12-10.3-.15-15.45-.22-.43,.32-.85,.66-1.29,.95-1.12,.73-2.67,1.18-3.29,2.2-.99,1.65-1.59,3.62-1.94,5.54-.28,1.52-2.93,3.21,.04,4.74,.03,.02,.02,.13,.01,.2-.23,1.57,.9,1.54,1.94,1.67,.63,.08,1.25,.25,1.87,.38,5.92,.14,11.84,.28,17.76,.42Zm27.04,25.85c2.6-4.06,5.16-8.16,7.68-12.27,0-.01-.57-.56-.85-.54-1.56,.1-3.12,.28-4.68,.48-3.1,.41-6.25,.59-9.26,1.37-2.65,.69-4.1,2.91-4.41,5.62-.32,2.79,.69,5.08,3.15,6.6,2.33,1.43,4.65,1.34,7.15-.19,.29-.25,.88-.57,1.2-1.07Zm-24.11,22.45c4.19-1.91,8.62-3.27,12.94-4.88-1.77-.26-3.54-.54-5.32-.76-5-.63-9.99-1.3-15-1.81-1.46-.15-2.97,.19-4.46,.31-.52,1.54-1.34,3.06-1.47,4.63-.19,2.22-.42,4.72,.42,6.65,.56,1.31,.78,1.6-.39,2.26-.39,.22-.66,.66-.99,1,4.75-2.48,9.4-5.18,14.27-7.39Zm21.95-8.67c.21-.09,.35-.35,.53-.52-.25-.01-.54-.1-.76-.02-7.28,2.57-14.57,1.73-21.97,.42-5.15-.91-10.34-.59-15.01,2.32,0,.07-.02,.14,0,.19,.02,.05,.1,.11,.14,.1,1.09-.31,2.18-.64,3.27-.96,1.49-.12,3-.46,4.46-.31,5.01,.51,10,1.18,15,1.81,1.78,.22,3.55,.51,5.32,.76,3-1.26,6.01-2.51,9-3.79Zm-64.43,28.28c-1.47,.53-3.3,3.37-3.18,4.93,1.06-1.64,2.12-3.29,3.18-4.93ZM110.89,7.67c-1.08,.36-2.16,.73-3.24,1.09,1.08-.36,2.16-.73,3.24-1.09Zm-9.6,50.81c.27-.32,.53-.65,.8-.97-.27,.32-.53,.65-.8,.97ZM185.59,8.97c-.33-.13-1-.38-1-.38,0,0-.04,.11-.06,.16,.36,.07,.71,.14,1.07,.21,0,0,0,0,0,0ZM74.74,100.27c-.53,.46-1.07,.92-1.6,1.38,.53-.46,1.07-.92,1.6-1.38Zm78.67-3.45h6.54v-14.06h-7.03v-9h22.29v9h-6.12v14.06h5.27v8.86h-5.27v15.36l6.54-1.3c-.14,2.39-.26,5.53-.35,9.42-4.22,.8-11.23,2.27-21.02,4.43l-1.55-9.56,7.24-1.27v-17.09h-6.54v-8.86Zm22.78-3.45h45.91v8.3h-20.74l-1.12,4.5h20.18v26.3c0,1.99-.54,3.49-1.62,4.48-1.08,1-2.67,1.49-4.78,1.49s-4.55-.02-7.31-.07l-.46-3.52h-5.52v-20.39h-4.08v20.39h-6.96v-20.39h-4.08v24.12h-8.44v-32.41h13.99l.95-4.5h-15.93v-8.3Zm1.83-4.01v-16.03h8.86v7.88h6.96v-12.3h9.21v12.3h7.03v-7.88h8.86v16.03h-40.92Zm32.2,41.41c1.17-.14,1.78-.91,1.83-2.32v-13.99h-4.36v16.14c.89,.09,1.73,.15,2.53,.18Zm17.44-57.45h19.12v55.05h-12.02v4.85h-7.1v-59.91Zm12.23,7.8h-5.13v7.88h5.13v-7.88Zm-5.13,23.62h5.13v-7.95h-5.13v7.95Zm5.13,15.82v-8.02h-5.13v8.02h5.13Zm52.52,7.03h-17.23v2.95h19.55v6.47h-48.94v-6.47h21.02v-2.95h-17.3v-5.84h17.3v-2.95h-16.52v-23.06h41.34v23.06h-16.45v2.95h17.23v5.84Zm-.28-46.76h-12.8l7.24,1.83c-.8,1.17-1.64,2.39-2.53,3.66h10.05v6.47h-45.77v-6.47h8.93c-.75-1.17-1.57-2.41-2.46-3.73l6.82-1.76h-10.97v-6.47h14.48c-.61-1.22-1.29-2.48-2.04-3.8l11.25-1.62c.47,1.55,.96,3.35,1.48,5.41h16.31v6.47Zm-33.54,23.84h8.23v-3.09h-8.23v3.09Zm0,8.3h8.23v-3.09h-8.23v3.09Zm9.35-26.65h5.55c1.17-1.83,2.2-3.66,3.09-5.48h-12.59c1.08,1.31,2.39,3.14,3.94,5.48Zm15.4,15.26h-8.16v3.09h8.16v-3.09Zm0,11.39v-3.09h-8.16v3.09h8.16Zm21.52,25.73v-31.36c-.77,.33-1.57,.66-2.39,.98-1.73-2.48-3.49-4.66-5.27-6.54,7.17-2.81,11.59-5.86,13.25-9.14h-12.62v-6.89h4.36c-1.41-2.23-2.79-4.17-4.15-5.84,2.53-2.44,5.09-6.07,7.66-10.9h9.07c-.77,1.73-1.58,3.38-2.43,4.92h19.65v6.96h-9.81c-.12,1.71-.3,3.33-.56,4.85h12.48v6.89h-10.93l10.02,6.68-4.57,5.2h30.09v34.17h-9.42v-3.09h-35.02v3.09h-9.42Zm-1.12-52.95h8.86c.23-1.45,.4-3.07,.49-4.85h-5.1c-1.36,1.81-2.78,3.42-4.25,4.85Zm6.43,18.77h16.14c-2.98-2.79-5.73-5.26-8.26-7.42-1.76,2.77-4.38,5.24-7.88,7.42Zm39.13,7.38h-35.02v4.92h35.02v-4.92Zm-35.02,16.31h35.02v-4.57h-35.02v4.57Zm20.95-54h28.05v26.3h-28.05v-26.3Zm19.34,18.84v-11.39h-10.62v11.39h10.62Zm74.6,6.26h-28.83v-3.52c-1.59,1.36-3.23,2.67-4.92,3.94-1.69-3.42-3.3-6.38-4.85-8.86h-4.22v4.85c3.33,2.62,6.56,5.34,9.7,8.16l-5.84,7.1c-1.22-1.59-2.51-3.14-3.87-4.64v32.41h-8.93v-29.67c-1.88,4.59-4.08,9.05-6.61,13.36-.75-4.78-1.5-9.07-2.25-12.87,3.47-5.95,6.21-12.19,8.23-18.7h-7.52v-9.14h8.16v-12.09h8.93v12.09h7.24v6.89c6.7-5.16,12.26-11.53,16.66-19.12h11.25l-1.2,1.97c5.11,8.25,11.39,14.41,18.84,18.49l-5.13,8.79c-1.69-1.08-3.3-2.2-4.85-3.38v3.94Zm-36.7,28.48h26.44c3-8.58,5.23-16.8,6.68-24.68l9.35,2.25c-1.64,5.81-4.01,13.29-7.1,22.43h9.35v8.58h-44.72v-8.58Zm8.51-22.78c2.67,6,5.04,12.16,7.1,18.49l-8.3,2.74c-1.64-5.91-3.77-12-6.4-18.28l7.59-2.95Zm13.92-25.59c-2.86,4.13-5.98,7.95-9.35,11.46h18.56c-3.23-3.23-6.3-7.05-9.21-11.46Zm.77,22.29c1.88,6.42,3.4,12.73,4.57,18.91l-8.3,1.9c-.66-4.59-1.97-10.9-3.94-18.91l7.66-1.9Zm-246.53,70.66l-3.62-7.98c-.75-1.64-1.5-2.74-2.24-3.3s-1.68-.84-2.8-.84h-3.38v12.13h-1.88v-27.23h7.56c2.4,0,4.29,.65,5.66,1.95s2.06,3.01,2.06,5.13c0,1.97-.56,3.61-1.69,4.92s-2.7,2.16-4.73,2.55v.07c1.08,.43,2.13,1.74,3.15,3.92l4.04,8.68h-2.13Zm-12.04-25.49v11.65h4.68c2.09,0,3.74-.54,4.96-1.63s1.83-2.58,1.83-4.48c0-1.73-.55-3.09-1.65-4.07s-2.68-1.47-4.73-1.47h-5.08Zm19.74,15.84c0,2.67,.62,4.76,1.85,6.27s2.92,2.26,5.08,2.26,4.31-.8,6.38-2.41v1.86c-2.02,1.43-4.26,2.14-6.73,2.14s-4.54-.9-6.08-2.7-2.32-4.33-2.32-7.6c0-2.84,.81-5.23,2.43-7.17s3.71-2.92,6.29-2.92c2.41,0,4.27,.85,5.56,2.55s1.94,4.01,1.94,6.94v.77h-14.4Zm12.57-1.58c-.08-2.25-.62-3.99-1.62-5.23s-2.37-1.85-4.13-1.85-3.34,.61-4.54,1.83-1.93,2.97-2.21,5.26h12.5Zm14.34,10.97c-.91,.43-1.77,.65-2.57,.65-2.87,0-4.31-1.72-4.31-5.17v-13.06h-3.5v-1.6h3.5v-5.04c.27-.11,.56-.21,.86-.3s.6-.19,.88-.3v5.64h5.13v1.6h-5.13v12.83c0,1.34,.21,2.31,.63,2.91s1.14,.91,2.16,.91c.71,0,1.49-.23,2.34-.7v1.63Zm4.71-24.08c-.39,0-.72-.14-1.01-.41s-.43-.63-.43-1.06c0-.41,.15-.75,.44-1.01s.63-.4,1-.4,.73,.13,1.03,.38,.45,.59,.45,1.03c0,.41-.15,.76-.44,1.05s-.64,.43-1.04,.43Zm-.86,24.35v-19.44h1.74v19.44h-1.74Zm7.51-.97v-2.14c1.95,1.24,3.92,1.86,5.92,1.86,2.13,0,3.75-.44,4.84-1.32s1.64-2.11,1.64-3.69c0-1.39-.37-2.51-1.11-3.34s-2.34-1.96-4.82-3.39c-2.75-1.61-4.5-2.95-5.23-4.03s-1.1-2.33-1.1-3.75c0-1.92,.75-3.55,2.24-4.9s3.48-2.01,5.97-2.01c1.63,0,3.25,.28,4.87,.83v1.97c-1.59-.71-3.3-1.07-5.12-1.07s-3.3,.47-4.39,1.4-1.63,2.12-1.63,3.58,.37,2.49,1.11,3.31,2.34,1.95,4.8,3.37c2.54,1.44,4.24,2.72,5.08,3.84s1.27,2.41,1.27,3.86c0,2.09-.73,3.79-2.18,5.11s-3.5,1.98-6.13,1.98c-.94,0-2.02-.15-3.24-.44s-2.16-.63-2.8-1Zm32.38,.11c-1.44,.89-3.16,1.34-5.17,1.34-2.64,0-4.77-.91-6.39-2.72s-2.43-4.2-2.43-7.14,.91-5.61,2.73-7.58,4.16-2.95,7.02-2.95c1.49,0,2.92,.3,4.31,.91v1.97c-1.38-.86-2.91-1.28-4.57-1.28-2.27,0-4.12,.82-5.54,2.46s-2.13,3.76-2.13,6.36,.65,4.54,1.94,6.07,3.01,2.29,5.14,2.29c1.95,0,3.64-.52,5.08-1.55v1.81Zm16.29,.86v-3.88h-.07c-.62,1.32-1.52,2.38-2.71,3.17s-2.5,1.19-3.94,1.19c-1.85,0-3.32-.52-4.39-1.56s-1.62-2.35-1.62-3.93c0-3.4,2.25-5.45,6.75-6.15l5.98-.9c0-4.17-1.57-6.26-4.71-6.26-2.13,0-4.21,.86-6.24,2.58v-2.11c.71-.57,1.69-1.06,2.93-1.47s2.4-.61,3.49-.61c2,0,3.55,.62,4.64,1.86s1.63,3.05,1.63,5.41v12.64h-1.74Zm-5.34-9.69c-2.04,.29-3.47,.76-4.3,1.42s-1.24,1.71-1.24,3.19c0,1.15,.38,2.09,1.15,2.84s1.84,1.12,3.21,1.12c1.86,0,3.42-.69,4.66-2.07s1.86-3.17,1.86-5.36v-1.9l-5.34,.77Zm26.16,9.69v-11.32c0-4.66-1.68-7-5.04-7-1.88,0-3.42,.69-4.62,2.06s-1.81,3.07-1.81,5.1v11.16h-1.74v-19.44h1.74v3.53h.09c1.42-2.67,3.63-4.01,6.64-4.01,2.1,0,3.7,.7,4.82,2.1s1.67,3.4,1.67,5.99v11.83h-1.74Zm9.86-10.92v10.92h-1.88v-27.23h6.56c2.8,0,4.94,.65,6.42,1.95s2.22,3.19,2.22,5.68-.83,4.61-2.48,6.24-3.97,2.44-6.94,2.44h-3.9Zm0-14.57v12.85h3.87c2.45,0,4.32-.59,5.6-1.76s1.92-2.83,1.92-4.97c0-4.08-2.35-6.12-7.05-6.12h-4.34Zm28.05,7.88c-.59-.42-1.27-.63-2.06-.63-1.54,0-2.82,.79-3.86,2.37s-1.56,3.83-1.56,6.75v9.12h-1.71v-19.44h1.71v4.31h.09c.43-1.48,1.13-2.63,2.1-3.45s2.08-1.24,3.35-1.24c.71,0,1.36,.12,1.93,.35v1.86Zm10.69,18.09c-2.84,0-5.08-.93-6.73-2.8s-2.48-4.29-2.48-7.27c0-3.23,.86-5.76,2.59-7.58s4-2.73,6.83-2.73,4.95,.91,6.57,2.72,2.42,4.32,2.42,7.51c0,3.02-.82,5.47-2.46,7.35s-3.88,2.81-6.73,2.81Zm.14-18.79c-2.3,0-4.12,.77-5.48,2.31s-2.04,3.69-2.04,6.44c0,2.54,.67,4.58,2,6.13s3.14,2.31,5.44,2.31,4.15-.76,5.41-2.28,1.9-3.62,1.9-6.32-.63-4.89-1.89-6.37-3.04-2.22-5.33-2.22Z"/>
  </g>
</svg>