<?xml version="1.0" encoding="UTF-8"?>
<svg id="_图层_2" data-name="图层 2" xmlns="http://www.w3.org/2000/svg" xmlns:xlink="http://www.w3.org/1999/xlink" viewBox="0 0 270.8 132">
  <defs>
    <style>
      .cls-1 {
        fill: url(#_未命名的渐变_7);
      }
    </style>
    <linearGradient id="_未命名的渐变_7"  x1="-17.97" y1="-242.78" x2="278.1" y2="-242.78" gradientTransform="translate(133.14 327.97) rotate(-29.22)" gradientUnits="userSpaceOnUse">
      <stop offset="0" stop-color="#375d81"/>
      <stop offset="1" stop-color="#c4d7ed"/>
    </linearGradient>
  </defs>
  <g id="_图层_1-2" >
    <path class="cls-1" d="M147.1,71.88c-7.47,4.81-13.13,11.29-17.51,18.96-.24,.43-.67,.75-1.01,1.12-.02-.39-.13-.8-.05-1.16,1.94-9.33,3.51-18.88,9.92-26.42,2.23-2.62,5.59-4.29,8.43-6.39,0,.07-.03,.14,0,.19,.02,.05,.1,.11,.14,.1,1.11-.25,2.21-.52,3.32-.78-.6,1.51-1.51,2.98-1.73,4.54-.31,2.21-.68,4.69,.05,6.66,.49,1.33,.69,1.64-.51,2.23-.4,.2-.7,.62-1.04,.94Zm-31.72-30.23c-3.02,.73-5.1,2.66-7.02,4.92-.31,.37-1.01,.39-1.38,.73-.64,.58-1.32,1.21-1.72,1.96-.69,1.28-1.03,2.76-1.78,4-.76,1.25-.52,1.71,.84,1.82,.39-.42,.78-.84,1.16-1.26,.28-.31,.57-.62,.85-.93,.26-.21,.51-.42,.78-.62,.2-.15,.43-.26,.65-.39-.09,.28-.13,.59-.29,.82-1.1,1.58-2.24,3.15-3.36,4.72,.38,1.12,.88,1.88,2.33,1.43,.57-.18,1.31,.12,1.96,.28,1.66,.43,2.04,.99,.55,2.38-.62,.58-1,2.44-.57,2.93,1.71,1.96,1.27,4.09,.94,6.2-.79,5.07-.26,9.79,2.81,14.11,.82,1.15,1.1,2.7,1.62,4.06,.35-.51,.7-1.02,1.05-1.53-.03-1.57,1.96-4.3,3.45-4.75,2.54-4.58,5.22-9.09,7.59-13.76,4.01-7.9,8.99-15.1,15.06-21.55,5.78-6.16,12.72-10.7,20.16-14.55,.49-.25,.87-.71,1.31-1.07-.52-.01-1.06-.11-1.57-.03-7.55,1.21-15.13,2.25-22.62,3.73-6.94,1.37-13.78,3.22-20.67,4.86-.71,.51-1.35,1.3-2.14,1.5Zm-55.38,15.24c.56-.84,.58-2.07,.75-3.14,.05-.34-.13-1.01-.32-1.05-2.5-.58-2.27-2.97-2.33-4.46-.07-1.66,1.15-3.37,1.8-5.07,.4-1.04,.76-2.09,1.14-3.14-4.23,5.92-7.92,12.18-10.14,19.09-2.49,7.76-4.52,15.69-6.47,23.61-1.49,6.03-2.33,12.23-5.37,17.8-1.31,2.39-3.19,3.77-5.76,4.72-5.68,2.1-11.37,4.3-16.8,6.96-3.81,1.87-7.38,4.36-10.74,6.98-2.14,1.68-3.72,4.09-5.49,6.22-.25,.3-.18,.87-.26,1.32,.35,0,.74,.12,1.05,0,3.93-1.51,7.88-2.97,11.76-4.59,5.1-2.13,10.35-3.79,15.83-2.27,7.28,2.02,14.42,4.53,21.64,6.77,3.87,1.2,7.79,2.27,11.68,3.4-.96-.57-1.89-1.21-2.89-1.68-1.21-.57-1.96-1.09-.56-2.27,1.12-.95,1.42-1.93,.54-3.38-.41-.69-.13-1.96,.16-2.87,.63-1.95,.86-3.61-1.46-4.59-.37-.16-.6-.66-.9-1,.47-.05,.97-.22,1.42-.14,1.88,.32,3.74,.77,5.63,1.02,.48,.06,1.04-.44,1.56-.68-5-1.39-9.98-2.83-15-4.14-3.55-.92-7.15-1.64-10.72-2.46-.25-.06-.5-.14-.75-.21,.21-.26,.39-.58,.64-.79,5.49-4.44,7.78-10.76,9.6-17.15,3.08-10.76,6.23-21.45,11.74-31.27-.97-.11-2.05,.03-.99-1.56Zm38.92,9.03c-3.91,6.95-7.72,13.95-13.2,19.85-1.85,1.99-3.81,3.88-5.72,5.81-.26,.46-.41,1.03-.79,1.37-.94,.84-1.87,1.56,.17,2.16,.19,.06,.35,.38,.45,.62,.72,1.74,1.59,3.44,2.06,5.24,.3,1.18,.03,2.51-.03,3.77-.01,.31-.19,.6-.29,.91,.32,.01,.65,0,.97,.05,1.11,.18,2.21,.38,3.31,.58,.53-.06,1.09-.03,1.59-.19,10.49-3.14,19.34-8.78,26.31-17.28-.53-1.36-.8-2.91-1.62-4.06-3.07-4.32-3.61-9.04-2.81-14.11,.33-2.11,.77-4.23-.94-6.2-.42-.49-.05-2.36,.57-2.93,1.49-1.39,1.12-1.94-.55-2.38-.64-.17-1.39-.46-1.96-.28-1.45,.46-1.95-.3-2.33-1.43-1.74,2.83-3.57,5.6-5.2,8.5ZM192.38,9.03s0,0,0,0c-.13,.42-.2,.87-.42,1.24-.19,.33-.81,.62-.78,.85,.56,3.85-.59,8.24,3.21,11.11,.6,.46,1.55,.43,2.26,.79,.53,.27,.92,.79,1.38,1.2,4.72,.77,9.42,1.64,14.16,2.28,9.25,1.24,18.33,.67,27.3-2.25,7.76-2.52,14.88-6.16,21.45-10.88,3.2-2.3,6.04-5.09,9.01-7.69,.37-.33,.56-.86,.84-1.29-.49,.22-.98,.43-1.47,.65-.12,.06-.24,.14-.35,.22-7.08,5.21-15.24,7.56-23.78,8.63-13.55,1.71-26.83-.13-39.97-3.5-3.37-.86-6.77-1.56-10.16-2.34-.9,.33-1.8,.65-2.7,.98ZM96.37,114.93c-1.47,.72-2.76,1.58-2.79,3.4-.05,2.36-2.06,4.34-1.21,6.92,.17,.51-.68,1.34-1.01,2.04-.16,.34-.2,.73-.3,1.09,.37,.06,.74,.21,1.1,.18,1.79-.17,3.57-.39,5.36-.6,.27-.01,.56,.05,.79-.05,8.82-3.61,16.87-8.62,23.29-15.55,6.82-7.35,12.73-15.56,19.07-23.36,2.74-3.37,5.34-6.92,8.42-9.95,4.02-3.96,8.49-7.45,13.93-9.42,.48-.18,.88-.59,1.32-.89-.52,.11-1.06,.13-1.54,.33-2.65,1.07-5.36,2.01-7.9,3.3-8.29,4.25-15.32,10.19-21.21,17.3-9.59,11.57-21.48,19.5-35.73,24.02-.53,.42-1.01,.94-1.6,1.23Zm-11.13,.83c-6.59,.03-13.18-.82-19.77-1.29-.52,.24-1.08,.74-1.56,.68-1.89-.25-3.75-.71-5.63-1.02-.45-.08-.94,.09-1.42,.14,.3,.34,.53,.84,.9,1,2.32,.98,2.09,2.64,1.46,4.59-.29,.9-.58,2.18-.16,2.87,.88,1.45,.58,2.43-.54,3.38-1.39,1.18-.65,1.71,.56,2.27,1.01,.47,1.93,1.11,2.89,1.68,5.24,.69,10.47,1.82,15.72,1.95,6.83,.17,13.53-1.16,19.83-4.03-1.79,.2-3.57,.42-5.36,.6-.36,.03-.73-.11-1.1-.18,.09-.37,.14-.76,.3-1.09,.33-.7,1.18-1.53,1.01-2.04-.85-2.58,1.16-4.56,1.21-6.92,.03-1.83,1.32-2.68,2.79-3.4,.59-.29,1.07-.82,1.6-1.23-4.24,.73-8.48,2.04-12.73,2.06ZM178.44,3.72c-4.15-.92-8.42-1.32-12.64-1.95-2.56,.5-3.15,2.01-2.63,4.47,.37,1.75-.03,3.35-1.19,5.07-.91,1.36-.38,3.69-.49,5.59,8.41,1.6,16.82,3.16,25.22,4.81,3.79,.75,7.55,1.67,11.33,2.52-.45-.41-.85-.94-1.38-1.2-.71-.36-1.65-.33-2.26-.79-3.8-2.88-2.65-7.26-3.21-11.11-.03-.24,.59-.52,.78-.85,.21-.37,.28-.83,.42-1.24-.35-.09-.7-.18-1.06-.26,.02-.05,.07-.16,.07-.16,.33,.14,.66,.29,.98,.43,.9-.33,1.8-.65,2.7-.98-5.54-1.47-11.05-3.1-16.64-4.34ZM95.91,50.9c-8.64,6.59-14.81,15.1-19.02,25.07,.01,.87,.26,1.82-.02,2.59-.48,1.32-.4,1.8,1.15,1.54,.52-.09,1.33,.02,1.59,.36,.23,.29-.15,1.04-.19,1.59-.02,.26,.18,.78,.22,.77,1.57-.23,1.63,.36,1.04,1.61-.22,.46,.03,1.15,.07,1.73,2.03-2.29,4.23-4.45,6.04-6.9,5.91-8,11.68-16.11,17.51-24.17-1.36-.11-1.6-.57-.84-1.82,.75-1.24,1.09-2.71,1.78-4,.4-.75,1.08-1.38,1.72-1.96,.38-.34,1.07-.36,1.38-.73,1.91-2.26,4-4.19,7.02-4.92,.79-.19,1.43-.98,2.14-1.5-7.73,2.52-15.11,5.78-21.61,10.74Zm-20.61,28.14c-3.6,7.4-7.51,14.65-14.31,19.61-3.26,2.38-7.13,3.93-10.72,5.84-.34,.18-.74,.26-1.11,.39,.4,.19,.79,.43,1.21,.57,6.83,2.23,13.9,3.03,21,2.8,4.84-.16,9.66-1.28,14.48-1.98-1.1-.19-2.21-.4-3.31-.58-.32-.05-.65-.04-.97-.05,.1-.3,.27-.6,.29-.91,.06-1.26,.33-2.59,.03-3.77-.47-1.8-1.34-3.5-2.06-5.24-.1-.23-.25-.56-.45-.62-2.04-.6-1.1-1.31-.17-2.16,.37-.34,.53-.91,.79-1.37-1.11,.83-2.22,1.66-3.33,2.49-.56,.43-1.12,.86-1.67,1.29-5.66,2.7-11.29,5.45-16.99,8.05-1.12,.51-2.5,.43-3.77,.62,1.15-.35,2.29-.71,3.44-1.05,7.4-2.18,12.92-7.23,18.48-12.18,1.63-1.45,3.08-3.09,4.61-4.65-.04-.58-.29-1.27-.07-1.73,.59-1.24,.52-1.84-1.04-1.61-.04,0-.24-.51-.22-.77,.03-.55,.42-1.3,.19-1.59-.27-.34-1.07-.45-1.59-.36-1.54,.27-1.62-.22-1.15-1.54,.28-.76,.03-1.72,.02-2.59-.53,1.02-1.09,2.03-1.59,3.07Zm-13.84-20.95c6.04-10.2,14.19-18.42,23.69-25.39-1.08,.23-2.17,.47-3.25,.7,0-1.82-.25-3.68,.05-5.45,.3-1.79,.78-3.74,1.8-5.18,1.71-2.39,3.66-4.75,5.97-6.55,2.89-2.25,6.23-3.93,9.38-5.85-2.76,1.24-5.7,2.18-8.23,3.77-5.15,3.23-10.23,6.61-15.06,10.29-5.74,4.37-10.61,9.66-14.76,15.59-.38,1.05-.74,2.1-1.14,3.14-.64,1.7-1.87,3.41-1.8,5.07,.06,1.5-.17,3.88,2.33,4.46,.19,.04,.37,.71,.32,1.05-.17,1.07-.19,2.29-.75,3.14-1.06,1.6,.02,1.45,.99,1.56,.16-.12,.38-.2,.48-.36ZM141.94,15.01c-1.03-.18-2.15-.21-1.84-1.77,.01-.07,.03-.18,0-.2-2.87-1.68-.13-3.23,.23-4.73,.45-1.89,1.16-3.83,2.24-5.42,.67-.99,2.25-1.35,3.4-2.02,.46-.27,.9-.58,1.34-.88-5.85,.4-11.73,.61-17.56,1.27-4,.45-7.93,1.54-11.9,2.34-1.1,.3-2.2,.61-3.3,.91,0,0,.06-.02,.06-.02-.41,.8-.84,1.6-1.22,2.41-.19,.41-.16,.97-.44,1.28-.76,.84-1.53,1.47-.52,2.76,.24,.31-.56,1.49-.95,2.23-1.15,2.17-2.28,4.33-.95,6.84,2.16-.54,4.31-1.11,6.47-1.62,8.8-2.07,17.77-2.71,26.78-2.91-.61-.16-1.22-.37-1.85-.48Zm-56.8,17.69c-1.08,.23-2.17,.47-3.25,.7,0-1.82-.25-3.68,.05-5.45,.3-1.79,.78-3.74,1.8-5.18,1.71-2.39,3.66-4.75,5.97-6.55,2.89-2.25,6.23-3.93,9.38-5.85,5.18-1.96,10.35-3.92,15.53-5.87-.41,.8-.84,1.6-1.22,2.41-.19,.41-.16,.97-.44,1.28-.76,.84-1.53,1.47-.52,2.76,.24,.31-.56,1.49-.95,2.23-1.15,2.17-2.28,4.33-.95,6.84-7.23,2.59-14.24,5.66-20.78,9.71-1.55,.96-3.08,1.97-4.61,2.96Zm76.35-15.8c.11-1.9-.43-4.23,.49-5.59,1.16-1.72,1.56-3.32,1.19-5.07-.52-2.46,.07-3.96,2.63-4.47-1.02-.24-2.04-.62-3.07-.7-5.13-.4-10.27-.72-15.41-1.07-.45,.29-.88,.61-1.34,.88-1.16,.66-2.73,1.03-3.4,2.02-1.08,1.59-1.79,3.53-2.24,5.42-.36,1.5-3.1,3.05-.23,4.73,.03,.02,.01,.13,0,.2-.31,1.56,.81,1.59,1.84,1.77,.62,.11,1.23,.32,1.85,.48,5.9,.47,11.8,.93,17.71,1.4Zm25.57,27.31c2.82-3.91,5.6-7.86,8.35-11.83,0-.01-.53-.59-.82-.59-1.57,.02-3.13,.1-4.69,.22-3.11,.24-6.28,.25-9.32,.86-2.68,.54-4.25,2.68-4.71,5.37-.47,2.76,.4,5.11,2.78,6.76,2.24,1.56,4.57,1.6,7.15,.2,.31-.24,.92-.52,1.26-1Zm-25.31,21.09c4.28-1.67,8.79-2.79,13.19-4.15-1.76-.35-3.51-.73-5.27-1.06-4.95-.91-9.9-1.85-14.87-2.64-1.45-.23-2.98,.03-4.47,.07-.6,1.51-1.51,2.98-1.73,4.54-.31,2.21-.68,4.69,.05,6.66,.49,1.33,.69,1.64-.51,2.23-.4,.2-.7,.62-1.04,.94,4.88-2.22,9.67-4.65,14.66-6.59Zm22.39-7.44c.22-.08,.37-.33,.56-.49-.25-.02-.53-.13-.76-.06-7.41,2.17-14.64,.92-21.96-.79-5.09-1.2-10.29-1.16-15.11,1.49,0,.07-.03,.14,0,.19,.02,.05,.1,.11,.14,.1,1.11-.25,2.21-.52,3.32-.78,1.49-.04,3.02-.29,4.47-.07,4.97,.79,9.92,1.73,14.87,2.64,1.76,.32,3.51,.7,5.27,1.06,3.07-1.09,6.14-2.18,9.2-3.29Zm-65.89,24.67c-1.5,.44-3.49,3.18-3.45,4.75,1.15-1.58,2.3-3.17,3.45-4.75Zm-.39-78.91c-1.1,.3-2.2,.61-3.3,.91,1.1-.3,2.2-.61,3.3-.91Zm-12.39,50.2c.28-.31,.57-.62,.85-.93-.28,.31-.57,.62-.85,.93ZM192.38,9.03c-.33-.15-.98-.43-.98-.43,0,0-.05,.1-.07,.16,.35,.09,.7,.18,1.06,.26,0,0,0,0,0,0ZM76.66,94.07c-.56,.43-1.12,.86-1.67,1.29,.56-.43,1.12-.86,1.67-1.29Z"/>
  </g>
</svg>