<?xml version="1.0" encoding="UTF-8"?>
<svg id="_图层_2" data-name="图层 2" xmlns="http://www.w3.org/2000/svg" xmlns:xlink="http://www.w3.org/1999/xlink" viewBox="0 0 768.72 156.06">
  <defs>
    <style>
      .cls-1 {
        fill: url(#_未命名的渐变_11);
      }

      .cls-2 {
        fill: #00b0e8;
      }
    </style>
    <linearGradient id="_未命名的渐变_11" x1="0" y1="51.77" x2="296.07" y2="51.77" gradientUnits="userSpaceOnUse">
      <stop offset="0" stop-color="#083078"/>
      <stop offset="1" stop-color="#00b0e8"/>
    </linearGradient>
  </defs>
  <g id="_图层_1-2" >
    <path class="cls-1" d="M155.15,77.87c-8.87,.55-16.97,3.45-24.54,8-.42,.25-.95,.33-1.43,.49,.17-.35,.28-.76,.52-1.04,6.25-7.19,12.28-14.77,21.56-18.22,3.23-1.2,6.97-1.02,10.48-1.47-.03,.06-.09,.11-.1,.17,0,.05,.03,.15,.07,.16,1.09,.32,2.18,.63,3.28,.94-1.26,1.02-2.77,1.86-3.72,3.12-1.35,1.77-2.88,3.76-3.21,5.84-.22,1.41-.2,1.77-1.54,1.7-.45-.02-.91,.2-1.37,.31Zm-12.93-41.87c-2.99-.84-5.75-.17-8.53,.87-.45,.17-1.07-.15-1.56-.04-.85,.19-1.74,.41-2.46,.87-1.23,.78-2.25,1.91-3.51,2.62-1.27,.72-1.29,1.24-.15,2,.54-.18,1.09-.36,1.63-.53,.4-.13,.8-.26,1.2-.39,.33-.05,.65-.12,.98-.16,.25-.03,.5-.02,.75-.03-.22,.2-.4,.45-.65,.58-1.74,.84-3.49,1.66-5.24,2.48-.22,1.16-.15,2.08,1.34,2.38,.58,.12,1.09,.74,1.57,1.2,1.24,1.19,1.3,1.86-.68,2.34-.82,.2-2.06,1.65-1.93,2.28,.53,2.55-.89,4.19-2.21,5.86-3.17,4.04-5,8.42-4.43,13.69,.15,1.41-.36,2.89-.56,4.34,.56-.27,1.11-.55,1.67-.82,.74-1.38,3.81-2.8,5.33-2.46,4.45-2.76,9-5.38,13.34-8.3,7.36-4.94,15.22-8.79,23.66-11.46,8.05-2.55,16.32-3.13,24.7-2.86,.55,.02,1.11-.19,1.66-.3-.45-.27-.87-.61-1.35-.79-7.18-2.63-14.3-5.42-21.57-7.79-6.72-2.19-13.6-3.92-20.41-5.85-.87,.1-1.82,.48-2.6,.26Zm-55.77-13.73c.9-.46,1.52-1.52,2.19-2.37,.21-.27,.38-.95,.24-1.07-1.9-1.73-.53-3.7,.15-5.03,.75-1.48,2.65-2.38,4.04-3.54,.85-.72,1.69-1.46,2.53-2.18-6.58,3.1-12.86,6.77-18.17,11.72-5.96,5.56-11.6,11.48-17.17,17.44-4.25,4.54-8,9.54-13.38,12.91-2.31,1.45-4.62,1.73-7.33,1.31-5.99-.94-12.02-1.8-18.06-2.13-4.24-.23-8.57,.2-12.78,.85-2.69,.42-5.24,1.75-7.83,2.74-.37,.14-.58,.67-.87,1.02,.3,.18,.59,.46,.92,.51,4.17,.61,8.33,1.26,12.51,1.74,5.49,.63,10.88,1.75,14.93,5.75,5.37,5.32,10.38,10.99,15.58,16.47,2.79,2.94,5.69,5.78,8.53,8.67-.56-.96-1.06-1.98-1.7-2.88-.78-1.09-1.17-1.91,.62-2.26,1.44-.28,2.18-.99,2.12-2.68-.03-.8,.84-1.78,1.54-2.42,1.5-1.39,2.51-2.73,.97-4.71-.25-.32-.21-.87-.3-1.31,.44,.19,.95,.28,1.31,.57,1.49,1.19,2.89,2.5,4.41,3.64,.39,.29,1.12,.12,1.69,.17-3.69-3.65-7.33-7.35-11.07-10.93-2.65-2.54-5.44-4.92-8.16-7.38-.19-.17-.37-.36-.55-.55,.32-.13,.62-.32,.95-.37,6.95-1.19,12.04-5.6,16.75-10.28,7.94-7.89,15.9-15.68,25.51-21.56-.79-.57-1.8-.97-.1-1.85Zm29.56,26.88c-6.8,4.16-13.55,8.41-21.21,10.89-2.58,.84-5.21,1.52-7.82,2.28-.45,.28-.87,.7-1.36,.81-1.23,.28-2.4,.45-.91,1.97,.14,.14,.12,.51,.09,.76-.22,1.87-.29,3.78-.76,5.58-.31,1.18-1.2,2.2-1.87,3.28-.16,.26-.46,.44-.69,.65,.27,.17,.57,.32,.82,.52,.88,.7,1.74,1.41,2.61,2.12,.49,.21,.97,.5,1.48,.62,10.69,2.38,21.16,1.77,31.4-2.24,.21-1.45,.72-2.93,.56-4.34-.57-5.27,1.26-9.65,4.43-13.69,1.32-1.68,2.74-3.32,2.21-5.86-.13-.63,1.11-2.08,1.93-2.28,1.98-.48,1.92-1.15,.68-2.34-.48-.46-.99-1.08-1.57-1.2-1.49-.31-1.56-1.22-1.34-2.38-2.9,1.62-5.86,3.15-8.69,4.88Zm109.35-4.02s0,0,0,0c-.32,.3-.6,.66-.97,.88-.33,.2-1.01,.14-1.09,.37-1.39,3.64-4.53,6.9-2.62,11.27,.3,.69,1.14,1.13,1.58,1.79,.33,.49,.42,1.14,.61,1.72,3.74,2.97,7.42,6.03,11.25,8.9,7.47,5.6,15.67,9.53,24.93,11.37,8,1.58,16,1.89,24.03,.97,3.91-.44,7.75-1.5,11.62-2.32,.48-.1,.91-.47,1.36-.72-.53-.05-1.07-.1-1.6-.14-.14-.01-.27,0-.41,.02-8.72,1.09-16.99-.84-24.97-4.07-12.66-5.13-23.35-13.22-33.17-22.56-2.52-2.4-5.15-4.67-7.73-7-.94-.15-1.89-.31-2.83-.46ZM89.87,90.67c-1.63-.08-3.17,.03-4.1,1.61-1.19,2.04-3.91,2.78-4.43,5.45-.1,.53-1.25,.83-1.88,1.29-.3,.22-.53,.54-.79,.81,.29,.23,.55,.55,.88,.69,1.64,.72,3.31,1.4,4.97,2.1,.24,.12,.47,.32,.71,.35,9.46,1.15,18.93,.71,27.92-2.2,9.54-3.09,18.7-7.36,28.05-11.08,4.04-1.61,8.04-3.43,12.21-4.58,5.44-1.49,11.05-2.36,16.76-1.42,.51,.08,1.06-.08,1.59-.13-.5-.16-.99-.4-1.51-.47-2.83-.36-5.66-.87-8.5-.97-9.31-.34-18.34,1.41-26.96,4.74-14.01,5.42-28.26,6.53-42.91,3.52-.67,.11-1.34,.33-2,.3Zm-10.12-4.71c-5.77-3.19-11.11-7.15-16.63-10.78-.57-.04-1.3,.12-1.69-.17-1.52-1.14-2.92-2.45-4.41-3.64-.36-.29-.87-.39-1.31-.57,.09,.44,.05,.99,.3,1.31,1.55,1.99,.54,3.33-.97,4.71-.7,.64-1.57,1.62-1.54,2.42,.06,1.69-.68,2.4-2.12,2.68-1.79,.35-1.4,1.17-.62,2.26,.65,.9,1.14,1.92,1.7,2.88,4.24,3.16,8.25,6.7,12.76,9.38,5.88,3.49,12.38,5.59,19.27,6.17-1.66-.69-3.32-1.37-4.97-2.1-.33-.14-.59-.46-.88-.69,.26-.27,.49-.59,.79-.81,.63-.45,1.78-.76,1.88-1.29,.52-2.66,3.24-3.41,4.43-5.45,.92-1.58,2.46-1.69,4.1-1.61,.66,.03,1.33-.19,2-.3-4.06-1.43-8.4-2.36-12.12-4.42ZM215.78,33.67c-3.18-2.83-6.71-5.26-10.08-7.87-2.48-.81-3.73,.21-4.48,2.62-.53,1.71-1.66,2.91-3.51,3.84-1.46,.74-2.13,3.04-3.15,4.64,6.56,5.5,13.14,10.97,19.66,16.51,2.95,2.5,5.78,5.15,8.66,7.73-.2-.58-.28-1.23-.61-1.72-.44-.66-1.28-1.1-1.58-1.79-1.91-4.36,1.23-7.63,2.62-11.27,.09-.22,.76-.17,1.09-.37,.37-.22,.65-.58,.97-.88-.26-.25-.53-.5-.79-.75,.05-.04,.14-.1,.14-.1,.22,.28,.43,.57,.65,.86,.94,.15,1.89,.31,2.83,.46-4.12-3.98-8.13-8.1-12.41-11.91Zm-95.06,.89c-10.75,1.54-20.29,5.95-28.84,12.59-.41,.76-.67,1.72-1.28,2.25-1.06,.92-1.23,1.38,.25,1.9,.5,.18,1.15,.66,1.22,1.09,.06,.37-.64,.83-.94,1.3-.14,.22-.22,.77-.18,.78,1.48,.56,1.25,1.11,.13,1.91-.42,.3-.53,1.02-.78,1.54,2.89-1.01,5.87-1.82,8.64-3.07,9.07-4.1,18.06-8.35,27.08-12.55-1.13-.76-1.12-1.28,.15-2,1.26-.71,2.28-1.83,3.51-2.62,.72-.46,1.61-.68,2.46-.87,.49-.11,1.11,.21,1.56,.04,2.77-1.04,5.54-1.7,8.53-.87,.78,.22,1.73-.16,2.6-.26-7.98-1.58-16.01-2.33-24.1-1.17Zm-31.73,14.5c-6.75,4.7-13.71,9.12-22.06,10.13-4.01,.49-8.14-.05-12.21-.14-.39,0-.77-.13-1.15-.2,.26,.36,.48,.76,.78,1.08,4.87,5.28,10.65,9.43,16.96,12.69,4.3,2.23,9.05,3.59,13.61,5.35-.87-.71-1.73-1.43-2.61-2.12-.25-.2-.55-.35-.82-.52,.23-.21,.53-.39,.69-.65,.66-1.07,1.56-2.1,1.87-3.28,.47-1.8,.54-3.71,.76-5.58,.03-.25,.05-.61-.09-.76-1.49-1.51-.32-1.69,.91-1.97,.49-.11,.91-.53,1.36-.81-1.38,.18-2.75,.37-4.13,.55-.7,.1-1.39,.2-2.09,.31-6.25-.41-12.51-.76-18.76-1.27-1.22-.1-2.39-.85-3.59-1.3,1.17,.25,2.35,.5,3.51,.76,7.52,1.7,14.8,0,22.07-1.61,2.13-.47,4.19-1.2,6.29-1.81,.25-.53,.37-1.25,.78-1.54,1.12-.8,1.35-1.35-.13-1.91-.04-.01,.04-.56,.18-.78,.3-.46,1-.93,.94-1.3-.07-.43-.72-.92-1.22-1.09-1.48-.52-1.31-.99-.25-1.9,.61-.53,.87-1.48,1.28-2.25-.96,.63-1.94,1.24-2.89,1.9Zm-1.85-25.04c10.25-5.95,21.38-9.15,33.07-10.59-1.06-.33-2.12-.65-3.18-.98,.88-1.59,1.58-3.33,2.7-4.73,1.13-1.42,2.5-2.89,4.1-3.64,2.66-1.26,5.52-2.36,8.4-2.8,3.62-.56,7.36-.38,11.04-.53-3.01-.27-6.03-.88-9.02-.73-6.07,.3-12.16,.78-18.17,1.63-7.14,1.01-13.98,3.25-20.49,6.4-.84,.73-1.67,1.47-2.53,2.18-1.39,1.17-3.29,2.06-4.04,3.54-.68,1.34-2.05,3.3-.15,5.03,.14,.13-.02,.8-.24,1.07-.67,.85-1.29,1.91-2.19,2.37-1.71,.87-.69,1.28,.1,1.85,.2-.02,.43,0,.59-.08Zm91.27,1.69c-.81-.66-1.78-1.24-.74-2.44,.04-.05,.11-.14,.1-.17-1.69-2.87,1.46-2.88,2.51-4.02,1.32-1.43,2.88-2.78,4.6-3.64,1.07-.53,2.62-.09,3.96-.1,.53,0,1.07-.07,1.6-.11-5.3-2.51-10.53-5.2-15.94-7.46-3.71-1.56-7.67-2.53-11.53-3.76-1.11-.27-2.22-.54-3.33-.81,0,0,.06,0,.06,0-.75,.5-1.51,.98-2.24,1.51-.37,.27-.62,.77-1.01,.9-1.07,.36-2.06,.54-1.81,2.16,.06,.39-1.21,1.03-1.92,1.48-2.06,1.33-4.1,2.67-4.17,5.51,2.15,.58,4.3,1.14,6.44,1.75,8.7,2.49,16.83,6.31,24.79,10.53-.46-.44-.89-.92-1.38-1.32Zm-58.2-12.29c-1.06-.33-2.12-.65-3.18-.98,.88-1.59,1.58-3.33,2.7-4.73,1.13-1.42,2.5-2.89,4.1-3.64,2.66-1.26,5.52-2.36,8.4-2.8,3.62-.56,7.36-.38,11.04-.53,5.47,.82,10.95,1.64,16.42,2.45-.75,.5-1.51,.98-2.24,1.51-.37,.27-.62,.77-1.01,.9-1.07,.36-2.06,.54-1.81,2.16,.06,.39-1.21,1.03-1.92,1.48-2.06,1.33-4.1,2.67-4.17,5.51-7.58-1.26-15.19-2.01-22.88-1.67-1.82,.08-3.65,.22-5.47,.33Zm74.35,23.48c1.02-1.61,1.69-3.9,3.15-4.64,1.85-.94,2.98-2.13,3.51-3.84,.74-2.4,2-3.43,4.47-2.62-.77-.71-1.47-1.54-2.34-2.11-4.29-2.85-8.61-5.64-12.93-8.45-.53,.04-1.07,.1-1.6,.11-1.33,.01-2.89-.43-3.96,.1-1.72,.86-3.28,2.21-4.6,3.64-1.05,1.13-4.19,1.15-2.51,4.02,.02,.03-.05,.12-.1,.17-1.03,1.21-.06,1.78,.74,2.44,.49,.4,.92,.88,1.38,1.32,4.92,3.29,9.85,6.58,14.77,9.87Zm8.99,36.31c4.37-2.04,8.72-4.13,13.06-6.25,.01,0-.18-.78-.42-.91-1.38-.75-2.78-1.44-4.21-2.1-2.83-1.31-5.6-2.85-8.55-3.8-2.6-.84-5.02,.26-6.73,2.39-1.76,2.18-2.14,4.66-.88,7.25,1.2,2.46,3.21,3.62,6.14,3.67,.38-.06,1.05,0,1.59-.26Zm-32.38,6.05c4.56,.63,9.03,1.85,13.54,2.81-1.36-1.17-2.7-2.35-4.08-3.49-3.88-3.21-7.74-6.45-11.69-9.56-1.16-.91-2.62-1.43-3.94-2.13-1.26,1.02-2.77,1.86-3.72,3.12-1.35,1.77-2.88,3.76-3.21,5.84-.22,1.41-.2,1.77-1.54,1.7-.45-.02-.91,.2-1.37,.31,5.34,.44,10.71,.66,16.01,1.4Zm23.17,4.44c.23,.04,.48-.1,.73-.16-.21-.15-.4-.37-.63-.43-7.53-1.73-13.23-6.34-18.77-11.41-3.86-3.53-8.41-6.04-13.92-6.08-.03,.06-.09,.11-.1,.17,0,.05,.03,.15,.07,.16,1.09,.32,2.18,.63,3.28,.94,1.32,.7,2.78,1.22,3.94,2.13,3.96,3.11,7.81,6.36,11.69,9.56,1.38,1.14,2.72,2.33,4.08,3.49,3.21,.54,6.42,1.1,9.63,1.62Zm-69.55-10.63c-1.52-.34-4.6,1.08-5.33,2.46,1.78-.82,3.55-1.64,5.33-2.46ZM162.97,4.01c-1.11-.27-2.22-.54-3.33-.81,1.11,.27,2.22,.54,3.33,.81Zm-35.32,37.76c.4-.13,.8-.26,1.2-.39-.4,.13-.8,.26-1.2,.39Zm97.71,3.34c-.21-.29-.65-.86-.65-.86,0,0-.09,.07-.14,.1,.26,.25,.53,.5,.79,.75,0,0,0,0,0,0ZM82.85,62.85c-.7,.1-1.39,.2-2.09,.31,.7-.1,1.39-.2,2.09-.31Z"/>
    <g>
      <path class="cls-2" d="M197.57,89.89h22.64v62.58h-8.02v-4.15h-6.61v5.34h-8.02v-63.77Zm14.62,8.3h-6.61v8.37h6.61v-8.37Zm-6.61,25.03h6.61v-8.37h-6.61v8.37Zm0,16.8h6.61v-8.51h-6.61v8.51Zm59.06,4.92l-4.99,9c-12.38-5.79-20.11-15.33-23.2-28.62h-3.23v18.7c3.23-.8,6.52-1.71,9.84-2.74-.05,3.09-.02,6.28,.07,9.56-8.81,2.02-14.3,3.75-16.45,5.2l-4.29-7.45c1.41-1.64,2.11-4.05,2.11-7.24v-52.59h35.65v36.56h-1.93l5.38,6.4c-3.07,2.23-6.52,4.46-10.34,6.71,3.12,2.74,6.91,4.91,11.39,6.5Zm-13.22-47.46h-18.21v5.62h18.21v-5.62Zm0,19.27v-5.77h-18.21v5.77h18.21Zm-3.2,15.75c3.54-2.44,6.56-4.83,9.07-7.17h-12.41c.84,2.62,1.96,5.02,3.34,7.17Z"/>
      <path class="cls-2" d="M266.62,133.07c4.48-5.41,7.93-11.34,10.37-17.79h-9.74v-9.07h10.05v-7.88l-8.51,.77c-.47-3.19-1.01-5.98-1.62-8.37,9.7-.75,18.66-1.71,26.86-2.88l2.67,8.23c-3.16,.45-6.59,.88-10.27,1.3v8.82h9.14v9.07h-9.14v6.05l3.38-3.16c3.38,3,6.23,5.72,8.58,8.16l-5.91,5.34c-2.32-2.72-4.34-5-6.05-6.86v30.34h-9.14v-23.77c-2.2,4.64-4.69,8.95-7.45,12.94-.8-3.09-1.88-6.84-3.23-11.25Zm27.07-2.11l22.85-2.07v-42.86h9.91v41.94l9.56-.88,.77,8.93-10.34,.95v18.18h-9.91v-17.3l-21.66,1.97-1.2-8.86Zm8.02-22.08c4.12,3.05,8.13,6.35,12.02,9.91l-6.61,6.4c-3.19-3.38-6.98-6.77-11.39-10.2l5.98-6.12Zm2.39-17.86c3.56,2.62,7.52,5.91,11.88,9.84l-6.54,6.47c-3.52-3.75-7.27-7.19-11.25-10.34l5.91-5.98Z"/>
      <path class="cls-2" d="M346.78,155.28v-31.36c-.77,.33-1.57,.66-2.39,.98-1.73-2.48-3.49-4.66-5.27-6.54,7.17-2.81,11.59-5.86,13.25-9.14h-12.62v-6.89h4.36c-1.41-2.23-2.79-4.17-4.15-5.84,2.53-2.44,5.09-6.07,7.66-10.9h9.07c-.77,1.73-1.58,3.38-2.43,4.92h19.65v6.96h-9.81c-.12,1.71-.3,3.33-.56,4.85h12.48v6.89h-10.93l10.02,6.68-4.57,5.2h30.09v34.17h-9.42v-3.09h-35.02v3.09h-9.42Zm-1.12-52.95h8.86c.23-1.45,.4-3.07,.49-4.85h-5.1c-1.36,1.81-2.78,3.42-4.25,4.85Zm6.43,18.77h16.14c-2.98-2.79-5.73-5.26-8.26-7.42-1.76,2.77-4.38,5.24-7.88,7.42Zm39.13,7.38h-35.02v4.92h35.02v-4.92Zm-35.02,16.31h35.02v-4.57h-35.02v4.57Zm20.95-54h28.05v26.3h-28.05v-26.3Zm19.34,18.84v-11.39h-10.62v11.39h10.62Z"/>
      <path class="cls-2" d="M418.36,137.36l7.52,3.52c-2.77,4.97-5.37,9.16-7.8,12.59l-7.31-4.43c2.77-3.56,5.3-7.45,7.59-11.67Zm-5.91-31.57h12.38v-2.6h-9.56v-5.2h9.56v-2.6h-10.62v-5.2h10.62v-4.22h8.44v4.22h10.62v5.2h-10.62v2.6h9.49v5.2h-9.49v2.6h11.11v5.2h-11.11v2.81h23.41v-2.81h-9.84v-5.2h9.84v-2.6h-7.66v-5.2h7.66v-2.6h-9.35v-5.2h9.35v-4.22h8.44v4.22h12.52v5.2h-12.52v2.6h11.39v5.2h-11.39v2.6h13.01v5.2h-13.01v2.81h8.09v22.08h-25.73c1.92,2.06,3.77,4.17,5.55,6.33l-6.19,4.5c-1.92-2.67-4.2-5.51-6.82-8.51l3.3-2.32h-26.37v-5.7h46.97v-2.67h-43.73v-5.2h43.73v-2.88h-46.41v-5.62h7.31v-2.81h-12.38v-5.2Zm44.93,33.12c2.62,1.22,5.44,2.44,8.44,3.66-.56,2.3-1.27,4.52-2.11,6.68-1.22,3.28-4.31,4.92-9.28,4.92h-16.52c-6.84,0-10.27-2.55-10.27-7.66v-8.44h9.28v5.62c0,2.3,1.24,3.45,3.73,3.45h10.12c3,0,4.76-.84,5.27-2.53,.38-1.08,.82-2.98,1.34-5.7Zm14.2-2.25c3.14,4.12,6.02,8.06,8.65,11.81l-7.17,4.43c-2.77-4.69-5.46-8.84-8.09-12.45l6.61-3.8Z"/>
      <path class="cls-2" d="M504.63,130.96c.47,4.41,1.01,7.92,1.62,10.55-5.91,4.31-10.57,8.18-13.99,11.6l-4.92-6.96c1.03-1.27,1.55-3.19,1.55-5.77v-22.01h-6.19v-9.56h15.68v27.14c1.78-1.45,3.87-3.12,6.26-4.99Zm-10.48-45.14c3.14,4.17,6.28,8.51,9.42,13.01-5.86,3.61-8.86,5.44-9,5.48-2.95-5.2-5.79-9.77-8.51-13.71l8.09-4.78Zm58.99,20.6c-1.55,2.34-3.28,5.25-5.2,8.72-9.09-5.58-16.05-12.14-20.88-19.69-4.36,5.95-11.67,12.66-21.94,20.11-1.36-2.77-2.98-5.65-4.85-8.65,10.22-6.38,17.62-13.29,22.22-20.74h11.81l-1.55,2.18c5.16,7.69,11.95,13.71,20.39,18.07Zm-9.49,20.11l6.75,6.68c-10.5,10.12-24.4,17.74-41.7,22.85-1.45-2.67-3.09-5.3-4.92-7.88,16.41-4.31,29.7-11.53,39.87-21.66Zm-15.19-22.01l6.61,5.91c-6.75,5.86-15.09,11.32-25.03,16.38-1.36-2.2-3.14-4.73-5.34-7.59,9.23-4.03,17.16-8.93,23.77-14.7Zm8.44,10.48l6.4,6.33c-8.53,7.41-19.1,14.11-31.71,20.11-1.41-2.58-3.12-5.25-5.13-8.02,12.61-5.44,22.76-11.58,30.45-18.42Z"/>
      <path class="cls-2" d="M624.51,117.81h-5.48v36.56h-9v-36.56h-5.98c0,15.52-2.88,27.56-8.65,36.14-1.99-1.88-3.73-3.43-5.2-4.68v3.55h-32.77V88.7h8.44v4.64l5.77-1.76c1.45,3.84,2.81,8.18,4.08,13.01l-6.68,1.97c-.8-3.8-1.85-7.86-3.16-12.2v34.52c3.35-3.45,6.07-7.39,8.16-11.85h-7.03v-7.88h9v-22.29h7.38v22.29h9.77v7.88h-9.77v5.31l3.45-2.71c3.19,3.38,5.72,6.4,7.59,9.07l-5.77,4.78c-1.36-2.23-3.12-4.66-5.27-7.31v16.8h-7.38v-16.66c-2.18,5.18-4.66,9.49-7.45,12.94-.84-2.16-1.73-4.22-2.67-6.19v11.6h22.99c4.22-6.26,6.33-14.37,6.33-24.33v-29.18c10.17-.75,18.63-2.18,25.38-4.29l4.01,8.44c-5.91,1.55-12.75,2.72-20.53,3.52v10.12h20.46v8.86Zm-36.7-26.23l6.82,2.11c-1.83,5.58-3.42,9.96-4.78,13.15l-6.12-2.11c2.02-5.62,3.38-10.01,4.08-13.15Z"/>
      <path class="cls-2" d="M643.29,133.49l7.1,6.26c-5.3,4.97-11.09,9.51-17.37,13.64-2.16-2.77-4.29-5.27-6.4-7.52,6.05-3.42,11.6-7.55,16.66-12.38Zm-13.78-43.03c22.97,.09,43.8-.82,62.51-2.74l1.41,7.73c-9.42,.89-19.28,1.62-29.57,2.18-4.88,2.95-10.04,5.77-15.5,8.44l23.24-1.05c3.49-1.97,7.07-4.05,10.72-6.26l6.61,6.61c-13.12,7.27-27.09,13.69-41.91,19.27,10.1-.44,20.27-1.03,30.52-1.76-1.8-1.78-3.52-3.4-5.13-4.85l6.54-5.27c3.61,3.14,9.33,8.65,17.16,16.52l-6.68,6.12c-1.66-1.85-3.27-3.6-4.82-5.24l-16.98,.67v16.52c0,2.37-.69,4.17-2.07,5.41-1.38,1.24-3.49,1.92-6.33,2.02s-6.62,.16-11.36,.16c-.42-3.42-1.03-6.61-1.83-9.56,2.3,.19,4.75,.28,7.35,.28,1.9,0,3.15-.21,3.76-.63s.91-1.22,.91-2.39v-11.36c-10.5,.54-18.54,1.14-24.12,1.79l-2.46-8.72c7.92-3,16.49-6.86,25.7-11.57-9.3,.56-16.49,1.21-21.55,1.93l-2.6-8.58c5.11-1.9,10.43-4.49,15.96-7.77l-17.93,.53c-.33-2.67-.84-5.48-1.55-8.44Zm49.43,42.33c5.2,3.56,11.04,7.9,17.51,13.01l-6.47,6.75c-5.02-4.31-10.66-8.84-16.95-13.57l5.91-6.19Z"/>
      <path class="cls-2" d="M711.77,126.88l10.41-1.2c-.38,2.91-.54,5.58-.49,8.02-7.59,.38-13.99,1.03-19.2,1.97l-2.18-7.8c2.7-2.69,5.98-6.94,9.84-12.73-3.66,.26-6.68,.56-9.07,.91l-2.53-7.95c4.45-6.09,8.48-13.64,12.09-22.64l9.21,3.66c-3.42,6.42-7.12,12.47-11.11,18.14,1.95-.02,4.16-.11,6.64-.25l3.2-5.31,7.31,3.94c-4.88,7.69-9.59,14.77-14.13,21.23Zm48.52,6.68c2.81,1.41,5.62,2.58,8.44,3.52-.63,7.17-1.74,11.76-3.32,13.78-1.58,2.02-4.08,3.02-7.51,3.02h-4.15c-5.39,0-8.11-2.98-8.16-8.93v-22.43l-5.7,.42c-.26,10.29-1.83,17.78-4.71,22.48-2.88,4.7-6.38,8.08-10.48,10.14-1.97-2.23-4.29-4.68-6.96-7.35-6.28,.63-12.19,1.37-17.72,2.21l-.77-9.35c4.64-.33,12.63-1.17,23.98-2.53-.12,1.76-.19,3.64-.21,5.66,5.11-3.4,7.77-10.2,7.98-20.39-2.62,.3-4.72,.62-6.29,.95l-2.53-8.58c3.7-2.34,7.71-7.31,12.02-14.91h-11.88v-8.02h15.57c-.77-1.88-1.65-3.84-2.64-5.91l10.48-1.9c1.27,2.55,2.47,5.16,3.62,7.8h17.68v8.02h-22.5c-3.07,4.78-6.61,9.49-10.62,14.13,5.88-.21,12.38-.53,19.48-.95-1.59-2.41-3.28-4.86-5.06-7.35l7.03-4.01c4.97,6.56,9.23,12.68,12.8,18.35l-7.66,4.64c-.8-1.43-1.63-2.87-2.5-4.32l-3.41,.18v20.25c0,1.83,.61,2.74,1.83,2.74h.63c1.1,0,1.83-.57,2.18-1.72s.7-4.37,1.05-9.67Z"/>
    </g>
  </g>
</svg>