<?xml version="1.0" encoding="UTF-8"?>
<svg id="_图层_2" data-name="图层 2" xmlns="http://www.w3.org/2000/svg" xmlns:xlink="http://www.w3.org/1999/xlink" viewBox="0 0 721 252.36">
  <defs>
    <style>
      .cls-1 {
        fill: url(#_未命名的渐变_26);
      }
    </style>
    <linearGradient id="_未命名的渐变_26" x1="0" y1="126.18" x2="721" y2="126.18" gradientUnits="userSpaceOnUse">
      <stop offset="0" stop-color="#083078"/>
      <stop offset="1" stop-color="#00b0e8"/>
    </linearGradient>
  </defs>
  <g id="_图层_1-2">
    <path class="cls-1" d="M377.84,189.62c-10.8,.67-21.13,2.77-31.07,6.09s-19.47,7.86-28.69,13.4c-.51,.31-1.09,.51-1.69,.68s-1.21,.31-1.79,.51c.21-.43,.38-.89,.57-1.33,7.32-9.49,15.66-18.51,24.19-26.81,11.28-10.41,25.31-20.25,41.51-21.24,4.33-.39,8.74-.55,13.02-1.1-.11,.13-.2,.27-.23,.4s0,.26,.16,.39c1.33,.39,2.66,.77,3.99,1.15s2.66,.76,3.99,1.14c-1.54,1.25-3.22,2.38-4.81,3.59-3.94,2.83-6.47,6.84-9.09,10.85-1.44,2.38-2.57,4.86-2.97,7.39-.27,1.71-.39,2.79-.85,3.41s-1.26,.81-2.89,.73c-.55-.03-1.1,.09-1.66,.26s-1.12,.36-1.67,.5Zm-31.48-101.97c-3.64-1.02-7.14-1.12-10.58-.66s-6.81,1.5-10.18,2.77c-.55,.21-1.2,.11-1.86,0-1.76-.43-3.37,.26-5.06,.72-2.8,.82-4.91,2.75-7.12,4.55-1.38,1.14-2.77,2.25-4.3,3.12-1.55,.88-2.33,1.63-2.38,2.4s.63,1.55,2.01,2.47c1.15-.38,2.3-.75,3.44-1.13s2.3-.75,3.44-1.13c.7-.13,1.4-.25,2.1-.34s1.41-.13,2.13-.11c-.26,.24-.51,.51-.76,.77-2.13,1.61-4.84,2.41-7.19,3.67-2.13,1-4.26,2-6.38,3-.27,1.42-.36,2.68,.07,3.68s1.38,1.75,3.19,2.12c.71,.15,1.37,.6,2,1.16,1.34,1.32,4.35,3.87,3.93,5.27-.19,.92-1.36,1.62-3.77,2.2-1,.24-2.26,1.25-3.22,2.38s-1.64,2.4-1.48,3.17c.65,3.1,.1,5.65-1,7.93s-2.77,4.3-4.38,6.35c-3.86,4.92-6.9,10.04-8.81,15.54s-2.68,11.38-1.98,17.79c.19,1.72-.03,3.47-.36,5.25s-.76,3.55-1.02,5.32c.68-.33,1.35-.67,2.03-1s1.35-.67,2.03-1c.9-1.68,3.21-3.39,5.77-4.57s5.36-1.84,7.21-1.42c5.42-3.36,10.9-6.63,16.34-9.96,14.58-8.86,28.53-19.08,43.97-26.28,18.6-9,38.94-16.02,59.58-17.94,10.04-1.05,20.17-1.23,30.37-.9,.67,.02,1.35-.1,2.02-.25s1.35-.35,2.03-.47c-.55-.33-1.08-.7-1.62-1.04s-1.09-.66-1.68-.88c-8.74-3.2-17.45-6.5-26.18-9.72-16.8-6.28-33.8-11.92-51.11-16.6-8.31-2.31-16.64-4.53-24.93-6.88-1.06,.12-2.17,.42-3.25,.61s-2.13,.29-3.08,.02ZM210.53,54.2c1.1-.56,2.02-1.49,2.88-2.53s1.64-2.2,2.45-3.24c.26-.33,.49-.91,.61-1.44s.14-1.02-.03-1.18c-2.32-2.1-2.64-4.35-2.18-6.48s1.71-4.14,2.53-5.77c.91-1.81,2.53-3.25,4.34-4.61,3.01-2.1,5.91-4.21,8.59-6.67,1.02-.89,2.04-1.78,3.07-2.67-8.01,3.77-15.84,7.89-23.28,12.57-16.06,9.77-29.07,23.56-42.23,36.83-12.29,12.46-24.04,25.47-35.81,38.39-5.22,5.45-10.77,10.55-17.32,14.66-2.81,1.76-5.62,2.82-8.56,3.3s-6,.4-9.3-.12c-12.42-1.93-24.94-3.86-37.49-4.73s-25.11-.68-37.62,1.63c-3.27,.51-6.47,1.57-9.63,2.82s-6.29,2.66-9.44,3.87c-.45,.17-.8,.58-1.13,1.05s-.64,1.01-.98,1.44c.37,.21,.73,.5,1.1,.74s.74,.45,1.13,.5c5.07,.74,10.14,1.5,15.21,2.23,11.51,1.87,23.73,2.21,34.74,5.92,6.18,2.09,11.93,5.21,16.85,10.08,9.96,10.03,19.58,20.4,29.24,30.73s19.36,20.63,29.5,30.49c-.68-1.17-1.33-2.38-2-3.56-.93-2.13-3.71-4.8-3.75-6.87,.07-.94,.92-1.65,3.11-2.08,1.76-.34,3.08-.95,3.95-1.98s1.28-2.49,1.21-4.56c-.03-.97,.48-2.06,1.22-3.09,1.95-2.74,5.62-5.02,6.5-8,.6-1.84,.28-3.87-1.61-6.29-.3-.39-.43-.92-.51-1.48s-.11-1.17-.22-1.7c.54,.23,1.11,.4,1.67,.6s1.08,.44,1.52,.79c1.81,1.45,3.57,2.98,5.33,4.48s3.55,2.99,5.4,4.38c.47,.35,1.15,.43,1.89,.43s1.53-.07,2.23-.02c-4.49-4.44-8.95-8.92-13.43-13.37s-8.98-8.89-13.54-13.26c-3.43-3.33-7-6.51-10.58-9.68s-7.17-6.33-10.63-9.63c.38-.15,.76-.35,1.14-.52s.77-.32,1.16-.39c8.47-1.45,15.8-4.86,22.44-9.33s12.61-10,18.35-15.71c9.66-9.6,19.34-19.15,29.53-28.08s20.89-17.26,32.59-24.42c-.96-.69-2.06-1.28-2.4-1.97s.08-1.46,2.16-2.53Zm71.98,65.45c-8.28,5.06-16.54,10.18-25.05,14.79-11.33,6.27-23.5,11.23-36.11,14.57-3.18,.9-6.37,1.78-9.55,2.7-.55,.34-1.08,.77-1.62,1.14-1.39,1.18-4.33,1.07-5.27,2.1-.63,.65-.44,1.68,1.37,3.52,.17,.18,.25,.48,.27,.83-.15,2.63-.51,5.24-.75,7.87-.47,3.79-.85,7.59-3.1,10.81-1.15,1.56-2,3.37-3.37,4.73-.3,.25-.63,.49-.91,.75,1.53,.88,2.92,1.94,4.28,3.06s2.68,2.29,4.07,3.36c12.91,4.22,26.61,5.64,40.25,4.81,13.63-.83,27.2-3.93,39.82-8.75,.25-1.76,.69-3.55,1.02-5.32s.55-3.53,.36-5.25c-.7-6.42,.07-12.29,1.98-17.79s4.96-10.63,8.81-15.54c1.6-2.04,3.27-4.06,4.38-6.35s1.65-4.83,1-7.93c-.16-.77,.51-2.04,1.48-3.17s2.22-2.14,3.22-2.38c2.41-.59,3.58-1.29,3.77-2.2,.42-1.4-2.59-3.95-3.93-5.27-.63-.56-1.29-1.01-2-1.16-1.81-.37-2.76-1.12-3.19-2.12s-.34-2.27-.07-3.68c-3.53,1.97-7.09,3.89-10.64,5.84s-7.07,3.93-10.52,6.04Zm266.29-9.78s0,0,0,0,0,0,0,0c-.39,.37-.76,.77-1.14,1.15s-.78,.73-1.23,1c-.4,.24-1.01,.33-1.55,.42s-1.01,.2-1.11,.47c-1.7,4.43-4.45,8.63-6.21,13.05-1.75,4.42-2.5,9.07-.17,14.38,.37,.84,1.06,1.53,1.8,2.21s1.52,1.35,2.05,2.15c.4,.6,.66,1.29,.87,2.02s.39,1.47,.62,2.18c13.39,11.07,26.58,21.82,40.85,30.6,14.26,8.78,29.59,15.58,47.25,18.76,14.5,2.98,29.1,4.06,43.62,3.44s28.98-2.93,43.2-6.71c.59-.12,1.14-.41,1.69-.74s1.08-.71,1.63-1.01c-.81-.04-1.63-.16-2.45-.24s-1.63-.14-2.45-.06c-10.62,1.33-20.96,.82-31.08-1.01-26.12-4.93-51.13-17.51-72.71-32.53-16.91-11.57-31.99-25.95-47.15-39.92-3.15-2.82-6.32-5.63-9.46-8.47-1.15-.19-2.3-.38-3.45-.56s-2.3-.38-3.45-.56ZM218.85,220.81c-1.99-.1-3.92-.08-5.64,.44s-3.22,1.55-4.34,3.47c-1.45,2.48-3.83,4.17-6.01,6.06s-4.15,3.96-4.78,7.21c-.12,.64-.89,1.15-1.81,1.63-1.38,.72-2.8,1.24-3.78,2.43-.31,.34-.61,.7-.93,1.04,.35,.29,.69,.62,1.03,.92s.7,.58,1.1,.76c2,.88,4.02,1.73,6.03,2.58s4.04,1.68,6.06,2.53c.29,.15,.57,.34,.86,.5s.58,.3,.88,.34c25.92,3.91,48.45,.46,70.27-6.28s42.93-16.78,66.01-26.05c11.16-4.72,22.62-9.37,34.37-12.34,11.76-2.97,23.81-4.26,36.17-2.26,.62,.1,1.26,.05,1.91-.04s1.31-.22,1.96-.29c-14.9-3.73-30.32-4.43-45.56-2.84-15.24,1.59-30.29,5.47-44.47,10.89-17.06,6.59-34.27,10.57-51.67,11.98s-34.99,.26-52.82-3.41c-.81,.13-1.63,.33-2.44,.49s-1.62,.27-2.43,.23Zm-24.64-11.48c-7.02-3.88-13.78-8.24-20.47-12.72s-13.3-9.11-20.02-13.53c-.7-.05-1.49,.02-2.23,.02s-1.42-.08-1.89-.43c-1.86-1.39-3.64-2.88-5.4-4.38s-3.52-3.03-5.33-4.48c-.44-.35-.96-.58-1.52-.79s-1.13-.38-1.67-.6c.11,.54,.14,1.14,.22,1.7s.2,1.09,.51,1.48c1.88,2.42,2.21,4.45,1.61,6.29-.88,2.99-4.55,5.26-6.5,8-.73,1.04-1.25,2.12-1.22,3.09,.07,2.06-.34,3.52-1.21,4.56s-2.19,1.63-3.95,1.98c-2.18,.43-3.04,1.14-3.11,2.08,.04,2.08,2.82,4.74,3.75,6.87,.67,1.19,1.31,2.39,2,3.56,12.46,9.95,23.65,18.75,35.88,25.39s25.51,11.13,42.14,12.46c-2.02-.85-4.04-1.68-6.06-2.53s-4.03-1.7-6.03-2.58c-.4-.18-.76-.45-1.1-.76s-.68-.64-1.03-.92c.32-.33,.62-.69,.93-1.04,.97-1.19,2.39-1.71,3.78-2.43,.92-.48,1.68-.99,1.81-1.63,.63-3.24,2.6-5.32,4.78-7.21s4.56-3.58,6.01-6.06c1.12-1.92,2.62-2.95,4.34-3.47s3.65-.54,5.64-.44c.8,.04,1.61-.07,2.43-.23s1.63-.36,2.44-.49c-4.94-1.75-10.06-3.18-15.07-4.81s-9.91-3.44-14.44-5.95Zm331.28-127.33c-3.87-3.44-7.95-6.65-12.1-9.78s-8.35-6.2-12.46-9.38c-3.02-.99-5.29-.85-7.03,.25s-2.96,3.19-3.86,6.12c-.64,2.09-1.65,3.85-3.07,5.39s-3.23,2.83-5.49,3.97c-1.78,.9-3.08,2.75-4.24,4.86s-2.19,4.49-3.44,6.44c11.57,9.75,23.24,19.38,34.81,29.13,11.57,9.75,23.02,19.63,34.15,29.89-.24-.71-.41-1.46-.62-2.18s-.47-1.42-.87-2.02c-.54-.8-1.32-1.47-2.05-2.15s-1.43-1.37-1.8-2.21c-2.33-5.31-1.58-9.96,.17-14.38,1.75-4.42,4.51-8.63,6.21-13.05,.1-.27,.57-.37,1.11-.47s1.15-.18,1.55-.42c.45-.27,.84-.62,1.23-1s.75-.78,1.14-1.15c-.32-.3-.64-.61-.96-.91s-.64-.61-.96-.91c.06-.04,.14-.11,.21-.16s.13-.09,.12-.09c-.99,.74-.74,1.09-.17,1.34s1.46,.4,1.74,.74c1.15,.19,2.3,.38,3.45,.56s2.3,.38,3.45,.56c-5.02-4.85-9.97-9.78-14.96-14.66s-10.04-9.7-15.25-14.34Zm-231.5,2.17c-13.1,1.87-25.45,5.49-37.13,10.67-11.68,5.18-22.69,11.91-33.09,20-.5,.93-.91,1.97-1.38,2.95s-.99,1.88-1.74,2.53c-1.29,1.12-2.03,1.96-2.01,2.68s.82,1.32,2.62,1.95c.61,.21,1.31,.62,1.87,1.1s1.01,1.04,1.09,1.56c.07,.45-.32,.96-.82,1.49s-1.11,1.1-1.47,1.67c-.17,.27-.31,.74-.39,1.14s-.1,.74-.06,.76c1.8,.69,2.56,1.37,2.53,2.12s-.85,1.57-2.22,2.54c-.51,.36-.83,.98-1.1,1.67s-.5,1.45-.8,2.09c3.52-1.23,7.09-2.34,10.62-3.52,14.97-5.19,28.98-12.73,43.44-19.15,10.98-5.12,21.95-10.26,32.93-15.37-1.38-.92-2.06-1.7-2.01-2.47s.83-1.52,2.38-2.4c1.53-.87,2.92-1.98,4.3-3.12,2.2-1.8,4.32-3.73,7.12-4.55,1.68-.46,3.29-1.15,5.06-.72,.66,.11,1.31,.2,1.86,0,3.38-1.26,6.75-2.3,10.18-2.77s6.94-.36,10.58,.66c.95,.27,2,.17,3.08-.02s2.19-.48,3.25-.61c-9.71-1.92-19.46-3.34-29.24-3.92s-19.6-.34-29.45,1.07Zm-77.26,35.3c-8.22,5.72-16.57,11.27-25.4,15.7-13.06,6.78-28.15,10.44-43.13,9.33-4.98-.2-9.97-.58-14.93-.69-.47-.01-.94-.09-1.41-.19s-.94-.22-1.4-.3c5.71,7.26,12.5,13.5,19.87,19,7.37,5.5,15.31,10.26,23.32,14.56,5.24,2.71,10.75,4.9,16.34,6.94,5.59,2.04,11.25,3.94,16.79,6.08-1.39-1.08-2.71-2.24-4.07-3.36s-2.75-2.19-4.28-3.06c.29-.26,.61-.5,.91-.75,1.37-1.35,2.22-3.17,3.37-4.73,2.26-3.22,2.64-7.02,3.1-10.81,.23-2.63,.6-5.24,.75-7.87-.02-.34-.09-.65-.27-.83-1.81-1.84-2-2.87-1.37-3.52,.94-1.04,3.88-.92,5.27-2.1,.54-.38,1.07-.8,1.62-1.14-2.52,.34-5.05,.67-7.57,1.01s-5.04,.69-7.56,1.07c-7.61-.5-15.23-.96-22.85-1.45s-6.35,.22-13.96-.41c-1.49-.12-12.09-2.44-13.54-3.06s-2.41-.74-4.39-1.1c1.44,.26,1.17,.33,1.17,.33,0,0,5.07,1.36,6.49,1.68,9.16,2.07,19.38,1.69,28.32,.68,11.51-1.49,23.11-3.86,34.34-7.06,2.54-.77,5.08-1.59,7.63-2.33,.31-.64,.53-1.4,.8-2.09s.6-1.31,1.1-1.67c1.37-.97,2.19-1.79,2.22-2.54s-.73-1.43-2.53-2.12c-.05-.02-.02-.36,.06-.76s.21-.87,.39-1.14c.36-.57,.97-1.13,1.47-1.67s.89-1.04,.82-1.49c-.08-.52-.52-1.08-1.09-1.56s-1.27-.89-1.87-1.1c-1.8-.63-2.59-1.23-2.62-1.95s.72-1.56,2.01-2.68c.75-.65,1.28-1.55,1.74-2.53s.87-2.02,1.38-2.95c-1.17,.77-2.36,1.53-3.53,2.29s-2.35,1.54-3.5,2.34Zm-4.52-60.97c12.48-7.25,25.49-12.82,38.95-17.02s27.35-7.02,41.59-8.78c-1.29-.4-2.58-.79-3.87-1.19s-2.58-.79-3.87-1.19c1.08-1.94,2.04-3.96,3.07-5.93,2.04-4.06,4.79-7.49,8.08-10.62,4.34-4.15,9.96-5.87,15.43-7.98,7.7-2.81,15.7-3.54,23.83-3.69,4.5-.11,9.02-.09,13.5-.26-3.66-.33-7.34-.86-11-1.27s-7.33-.69-10.97-.51c-16.11,.75-32.36,1.9-48.22,4.74-15.86,2.83-31.35,7.35-45.93,14.82-1.03,.89-2.04,1.78-3.07,2.67-2.68,2.46-5.59,4.57-8.59,6.67-1.81,1.35-3.42,2.8-4.34,4.61-.82,1.63-2.07,3.64-2.53,5.77s-.14,4.38,2.18,6.48c.17,.16,.16,.65,.03,1.18s-.35,1.11-.61,1.44c-.82,1.03-1.6,2.19-2.45,3.24s-1.78,1.97-2.88,2.53c-2.08,1.06-2.5,1.84-2.16,2.53s1.44,1.28,2.4,1.97c.24-.03,.51-.02,.76-.04s.49-.05,.69-.16Zm222.28,4.13c-.98-.81-2.06-1.56-2.58-2.48s-.48-2,.78-3.47c.05-.06,.12-.15,.17-.23s.08-.15,.06-.19c-2.06-3.5-1.17-5.25,.56-6.48s4.27-1.93,5.55-3.31c1.61-1.74,3.36-3.43,5.24-4.95,3.2-2.4,6.24-5.05,10.54-4.51,2.36,.18,4.68,.52,7.01,.25,.65-.05,1.3-.12,1.95-.16-6.46-3.05-12.87-6.22-19.32-9.31-10.89-5.2-21.78-10.38-33.41-13.74-4.71-1.44-9.47-2.78-14.16-4.28-1.35-.33-2.7-.66-4.05-.99s-2.7-.66-4.05-.99c0,0,.04,0,.07,.01s.07,.01,.07,.01c-.91,.61-1.83,1.21-2.75,1.81s-1.82,1.22-2.71,1.87c-.44,.32-.82,.79-1.2,1.22s-.77,.82-1.25,.98c-1.3,.44-2.56,.77-3.4,1.48s-1.3,1.8-.99,3.77c.07,.47-.67,1.1-1.64,1.74-3.49,2.2-7.23,4.26-9.93,7.19-1.89,2.08-3.17,4.62-3.25,8.08,13.35,3.16,26.35,7.36,39.02,12.41s25.01,10.94,37.03,17.48c-.56-.54-1.09-1.1-1.64-1.65s-1.11-1.08-1.71-1.57Zm-141.74-29.92c-1.29-.4-2.58-.79-3.87-1.19s-2.58-.79-3.87-1.19c1.08-1.94,2.04-3.96,3.07-5.93,2.04-4.06,4.79-7.49,8.08-10.62,4.34-4.15,9.96-5.87,15.43-7.98,7.7-2.81,15.7-3.54,23.83-3.69,4.5-.11,9.02-.09,13.5-.26,6.67,1,13.33,1.99,20,2.99s13.33,1.99,20,2.99c-.91,.61-1.83,1.21-2.75,1.81s-1.82,1.22-2.71,1.87c-.44,.32-.82,.79-1.2,1.22s-.77,.82-1.25,.98c-1.3,.44-2.56,.77-3.4,1.48s-1.3,1.8-.99,3.77c.07,.47-.67,1.1-1.64,1.74-3.49,2.2-7.23,4.26-9.93,7.19-1.89,2.08-3.17,4.62-3.25,8.08-11.41-1.99-22.89-3.32-34.41-3.89-11.52-.58-23.08-.39-34.63,.64Zm181.06,57.17c1.24-1.95,2.27-4.33,3.44-6.44s2.46-3.96,4.24-4.86c2.26-1.14,4.07-2.44,5.49-3.97s2.42-3.3,3.07-5.39c.9-2.92,2.12-5.01,3.86-6.12s4.02-1.24,7.03-.25c-.94-.87-1.84-1.8-2.76-2.69s-1.88-1.75-2.93-2.45c-5.22-3.48-10.46-6.91-15.72-10.33s-10.52-6.83-15.77-10.26c-.65,.05-1.3,.11-1.95,.16-2.33,.27-4.65-.07-7.01-.25-4.3-.55-7.34,2.11-10.54,4.51-1.88,1.52-3.63,3.21-5.24,4.95-1.27,1.38-3.83,2.08-5.55,3.31s-2.61,2.98-.56,6.48c.02,.04-.01,.11-.06,.19s-.12,.17-.17,.23c-1.26,1.47-1.3,2.55-.78,3.47,.94,1.5,3.04,2.63,4.29,4.05,.55,.55,1.09,1.11,1.64,1.65,5.99,4,11.99,8.01,17.98,12.01,5.99,4,11.99,8.01,17.98,12.01Zm21.88,88.43c5.33-2.48,10.64-5,15.94-7.53s10.59-5.1,15.87-7.68c.02,0-.09-.48-.28-1s-.45-1.07-.75-1.23c-1.67-.91-3.37-1.79-5.08-2.63-5.15-2.48-10.32-4.92-15.47-7.43-5.99-2.59-13.06-6.78-19.53-4.1-5.46,2.04-10.55,8.29-11.22,14.07-.87,5.57,2.58,13.09,7.59,15.88,2.48,1.47,5.5,2.21,9.07,2.27,.47-.07,1.11-.07,1.8-.14s1.42-.19,2.06-.49Zm-78.86,14.73c5.55,.77,11.04,1.9,16.53,3.13s10.95,2.56,16.44,3.73c-6.29-5.43-12.64-10.79-19.05-16.09-6.41-5.3-12.87-10.53-19.37-15.71-1.41-1.11-3-1.98-4.64-2.78s-3.34-1.55-4.95-2.4c-1.54,1.25-3.22,2.38-4.81,3.59-3.94,2.83-6.47,6.84-9.09,10.85-1.44,2.38-2.57,4.86-2.97,7.39-.27,1.71-.39,2.79-.85,3.41s-1.26,.81-2.89,.73c-.55-.03-1.1,.09-1.66,.26s-1.12,.36-1.67,.5c6.5,.54,13.02,.95,19.53,1.44s13,1.08,19.46,1.97Zm56.43,10.8c.28,.05,.57-.02,.87-.11s.6-.21,.9-.28c-.25-.18-.5-.4-.75-.6s-.51-.37-.79-.43c-9.17-2.1-17.22-5.96-24.67-10.84s-14.3-10.78-21.05-16.95c-4.7-4.3-9.82-7.97-15.44-10.59s-11.75-4.17-18.45-4.21c-.11,.13-.2,.27-.23,.4s0,.26,.16,.39c1.33,.39,2.66,.77,3.99,1.15s2.66,.76,3.99,1.14c1.61,.85,3.3,1.59,4.95,2.4s3.24,1.68,4.64,2.78c6.5,5.18,12.96,10.41,19.37,15.71,6.41,5.3,12.76,10.66,19.05,16.09,3.91,.66,7.82,1.33,11.73,1.99s7.82,1.32,11.73,1.96Zm-169.38-25.89c-1.85-.42-4.65,.24-7.21,1.42s-4.88,2.89-5.77,4.57c2.16-1,4.33-2,6.49-2.99s4.33-2,6.49-2.99ZM396.87,9.77c-1.35-.33-2.7-.66-4.05-.99s-2.7-.66-4.05-.99c1.35,.33,2.7,.66,4.05,.99s2.7,.66,4.05,.99Zm-86.01,91.97c.49-.16,.97-.32,1.46-.48s.97-.32,1.46-.48c-.49,.16-.97,.32-1.46,.48s-.97,.32-1.46,.48Zm237.94,8.14c-.26-.35-.52-.7-.78-1.05s-.53-.69-.79-1.04c0,0-.06,.04-.13,.09s-.15,.12-.21,.16c.32,.3,.64,.61,.96,.91s.64,.61,.96,.91c0,0,0,0,0,0s0,0,0,0Zm-347.04,43.18c-.85,.12-1.69,.25-2.54,.37s-1.69,.25-2.54,.37c.85-.12,1.69-.25,2.54-.37s1.69-.25,2.54-.37Z"/>
  </g>
</svg>